<svg width="30" height="30" viewBox="0 0 30 30" fill="none" xmlns="http://www.w3.org/2000/svg">
<path d="M29.4 0H6.4C6 0 5.8 0.3 5.8 0.6V5.8H0.6C0.3 5.8 0 6 0 6.4V26.6C0 28.4 1.6 30 3.5 30H26.5C28.4 30 30 28.4 30 26.5V0.6C30 0.3 29.7 0 29.4 0ZM3.5 28.8C2.2 28.8 1.2 27.8 1.2 26.5V7H23V19.2C23 25.8 23 26.6 23 26.7C23 27.3 23.2 27.8 23.5 28.3L23.8 28.8H3.5ZM28.8 26.5C28.8 27.8 27.8 28.8 26.5 28.8C25.2 28.8 24.2 27.8 24.2 26.5V6.4C24.2 6.1 23.9 5.8 23.6 5.8H7V1.2H28.8V26.5Z" fill="#555555"/>
<path d="M20.3 9.09998H3.99999C3.69999 9.09998 3.39999 9.39998 3.39999 9.69998V16C3.39999 16.3 3.69999 16.6 3.99999 16.6H20.3C20.6 16.6 20.9 16.3 20.9 16V9.69998C20.9 9.39998 20.6 9.09998 20.3 9.09998ZM19.7 15.4H4.59999V10.4H19.7V15.4Z" fill="#555555"/>
<path d="M20.2 18.7H13.6C13.2 18.7 12.9 19 12.9 19.3C12.9 19.6 13.2 19.9 13.6 19.9H20.2C20.6 19.9 20.9 19.6 20.9 19.3C20.9 19 20.6 18.7 20.2 18.7Z" fill="#555555"/>
<path d="M20.2 22.1H13.6C13.2 22.1 12.9 22.4 12.9 22.7C12.9 23 13.2 23.3 13.6 23.3H20.2C20.6 23.3 20.9 23 20.9 22.7C20.9 22.3 20.6 22.1 20.2 22.1Z" fill="#555555"/>
<path d="M20.2 25.4H13.6C13.2 25.4 12.9 25.7 12.9 26C12.9 26.3 13.2 26.6 13.6 26.6H20.2C20.6 26.6 20.9 26.3 20.9 26C20.9 25.7 20.6 25.4 20.2 25.4Z" fill="#555555"/>
<path d="M8.30001 19.6C7.90001 19.6 7.60001 19.7 7.30001 19.9L7.10001 20L7.00001 19.9C6.70001 19.7 6.40001 19.6 6.00001 19.6H5.80001C5.40001 19.7 4.90001 19.9 4.60001 20.2C4.30001 20.6 4.10001 21.1 4.10001 21.6C4.20001 23.3 6.80001 25.5 6.90001 25.6C7.10001 25.7 7.30001 25.7 7.40001 25.6C7.70001 25.4 10.1 23.2 10.2 21.6V21.5C10.2 20.5 9.40001 19.6 8.30001 19.6ZM7.30001 24.7L7.10001 24.9L7.00001 24.7C6.50001 24.2 5.00001 22.7 4.90001 21.7C4.90001 21.4 5.00001 21.1 5.20001 20.8C5.40001 20.6 5.70001 20.5 6.00001 20.4C6.30001 20.4 6.60001 20.6 6.80001 20.8C6.90001 20.9 7.00001 21 7.20001 21C7.30001 21 7.40001 20.9 7.50001 20.8C7.70001 20.6 8.00001 20.4 8.30001 20.4C8.60001 20.4 8.90001 20.5 9.10001 20.8C9.30001 21 9.40001 21.3 9.40001 21.7C9.30001 22.6 7.80001 24.2 7.30001 24.7Z" fill="#555555"/>
</svg>
