<?xml version="1.0" encoding="utf-8"?>
<!-- Generator: Adobe Illustrator 22.1.0, SVG Export Plug-In . SVG Version: 6.00 Build 0)  -->
<svg version="1.1" id="Layer_1" xmlns="http://www.w3.org/2000/svg" xmlns:xlink="http://www.w3.org/1999/xlink" x="0px" y="0px"
	 viewBox="0 0 500 500" style="enable-background:new 0 0 500 500;" xml:space="preserve">
<style type="text/css">
	.st0{fill:#555555;}
	.st1{fill:#FFFFFF;}
</style>
<g>
	<path class="st0" d="M340.2,42.1c4.7,0,8.4-0.1,12.1,0c11.7,0.4,20.7,5.3,27.1,15.4c1.3,2,4.4,3.9,6.8,4c31.3,1.2,40,10,40,41.3
		c0,112.3,0,224.6,0,336.9c0,23.6-11.6,35.5-35.3,35.2c-6.4-0.1-10.2,1.4-13.8,7.2c-5.9,9.6-15.9,12.6-27,12.6
		c-27.5-0.1-55,0-82.5,0c-52.9,0-105.8,0-158.7,0c-23.4,0-35-11.5-35-34.8c0-127.8,0-255.5,0-383.3c0-21.3,8.6-31.1,29.5-34.9
		c64-11.6,128-23.5,192-35c6.2-1.1,12.9-1.7,19.2-0.7c15.4,2.3,25.2,14.2,25.6,29.8C340.2,37.5,340.2,39.3,340.2,42.1z M93.2,268.5
		c0,63.5,0,127.1,0,190.6c0,13.2,2.6,15.9,15.7,15.9c79.7,0,159.4,0,239.1,0c12.7,0,15.5-2.9,15.5-15.4c0-127.3,0-254.6,0-381.9
		c0-13.1-2.8-15.9-15.8-15.9c-79.7,0-159.4,0-239.1,0c-12.6,0-15.5,2.9-15.5,15.5C93.2,141,93.2,204.7,93.2,268.5z M383.4,454.8
		c18,1.6,23.4,0.4,23.3-20c-0.4-112.2-0.2-224.5-0.2-336.7c0-2.3,0.8-5.1-0.3-6.8c-2.1-3.5-4.7-7.8-8.1-9c-4.4-1.6-9.7-0.4-14.8-0.4
		C383.4,206.6,383.4,330.5,383.4,454.8z M320.3,41.8c0.9-14.2-4.9-19.3-18.3-17c-5.9,1-11.8,2.1-17.7,3.1
		c-23.2,4.3-46.4,8.5-69.6,12.8c0,0.3,0.1,0.7,0.1,1c32.9,0,65.9,0,98.8,0C315.7,41.8,317.8,41.8,320.3,41.8z"/>
	<path class="st1" d="M383.4,454.8c0-124.3,0-248.3,0-373c5,0,10.4-1.2,14.8,0.4c3.4,1.2,6,5.6,8.1,9c1,1.7,0.3,4.5,0.3,6.8
		c0,112.2-0.2,224.5,0.2,336.7C406.8,455.3,401.5,456.5,383.4,454.8z"/>
	<path class="st1" d="M320.3,41.8c-2.5,0-4.6,0-6.6,0c-32.9,0-65.9,0-98.8,0c0-0.3-0.1-0.7-0.1-1c23.2-4.3,46.4-8.6,69.6-12.8
		c5.9-1.1,11.8-2.1,17.7-3.1C315.5,22.4,321.3,27.5,320.3,41.8z"/>
	<path class="st0" d="M229.8,119.2c11.7-11,25.3-15.3,40.9-11c29.3,8,40.8,43.7,20.8,66.5c-13.7,15.6-28.8,30-43.8,44.4
		c-9.8,9.3-24.8,9.1-34.7-0.2c-14.9-13.9-29.6-27.9-43.7-42.5c-14.9-15.4-14.9-39.7-0.8-55.5c14.4-16.3,38.2-18.8,55.8-6
		C226.1,116.2,227.8,117.7,229.8,119.2z M283.7,149.4c1.9-10.6-8.3-19.4-17.6-21.7c-10.8-2.6-20.6,2.2-25.4,12.9
		c-2.1,4.6-4.6,7.9-10.1,7.9c-5.5,0-8.1-3.3-10-8c-3.7-9.1-10.8-13.9-20.4-13.8c-9,0.1-15.9,4.7-19.4,13.2c-3.7,9-2,17.2,4.9,24.2
		c12.7,12.8,25.5,25.4,38.2,38.2c4.5,4.5,8.5,4.6,13.1,0.1c12.8-12.7,25.9-25,38.3-38.1C279,160.5,282.7,155.1,283.7,149.4z"/>
	<path class="st0" d="M230.5,320.2c28.2,0,56.3,0,84.5,0c5.7,0,10.1,1.7,11.3,7.8c1.1,5.6-2.4,10.6-8.3,11.5
		c-2.3,0.4-4.6,0.2-6.9,0.2c-53.8,0-107.6,0-161.4,0c-2.1,0-4.2,0.2-6.2-0.1c-5.8-0.7-9.5-4.9-9-10.3c0.5-5.7,3.7-8.8,9.4-9
		c4.4-0.2,8.8-0.1,13.2-0.1C181.5,320.2,206,320.2,230.5,320.2z"/>
	<path class="st0" d="M230.5,360.2c28.2,0,56.3,0,84.5,0c5.7,0,10.1,1.7,11.3,7.8c1.1,5.6-2.4,10.6-8.3,11.5
		c-2.3,0.4-4.6,0.2-6.9,0.2c-53.8,0-107.6,0-161.4,0c-2.1,0-4.2,0.2-6.2-0.1c-5.8-0.7-9.5-4.9-9-10.3c0.5-5.7,3.7-8.8,9.4-9
		c4.4-0.2,8.8-0.1,13.2-0.1C181.5,360.2,206,360.2,230.5,360.2z"/>
	<path class="st0" d="M230.6,252.4c13.8,0,27.7-0.1,41.5,0c7.3,0,11.2,3.3,11.3,9.3c0.2,6.2-4,10.1-11.3,10.1
		c-27.9,0.1-55.9,0.1-83.8,0c-7,0-11-3.8-11-9.7c0-6,3.9-9.6,11-9.7C202.4,252.4,216.5,252.4,230.6,252.4z"/>
	<path class="st0" d="M230.2,427.2c5.8-0.1,10.5,4.5,10.7,10.3c0.2,5.8-4.4,10.5-10.3,10.6c-5.8,0.1-10.7-4.5-10.8-10.2
		C219.6,432.2,224.4,427.3,230.2,427.2z"/>
	<path class="st0" d="M184,448.1c-5.9,0.1-10.5-4.3-10.6-10.2c-0.1-5.9,4.3-10.6,10.1-10.7c5.7-0.1,10.6,4.5,10.8,10.2
		C194.4,443.1,189.7,448,184,448.1z"/>
	<path class="st0" d="M287.5,437.3c0.2,5.9-4.2,10.6-10.1,10.7c-5.8,0.2-10.6-4.3-10.8-10.1c-0.2-5.7,4.4-10.6,10.2-10.8
		C282.6,427,287.4,431.5,287.5,437.3z"/>
</g>
</svg>
