<svg width="30" height="30" viewBox="0 0 30 30" fill="none" xmlns="http://www.w3.org/2000/svg">
<path d="M25.9 2.6H24.8V1.9C24.8 0.9 23.9 0 22.9 0C21.9 0 21 0.9 21 1.9V2.6H19.5V1.9C19.5 0.9 18.6 0 17.6 0C16.5 0 15.7 0.9 15.7 1.9V2.6H14.2V1.9C14.2 0.9 13.3 0 12.3 0C11.3 0 10.4 0.9 10.4 1.9V2.6H9V1.9C9 0.9 8.1 0 7.1 0C6.1 0 5.2 0.9 5.2 1.9V2.6H4.1C1.8 2.6 0 4.5 0 6.7V25.9C0 28.2 1.8 30 4.1 30H25.9C28.2 30 30 28.2 30 25.9V6.7C30 4.5 28.2 2.6 25.9 2.6ZM22.2 1.9C22.2 1.5 22.5 1.2 22.9 1.2C23.3 1.2 23.6 1.5 23.6 1.9V4.5C23.6 4.9 23.3 5.2 22.9 5.2C22.5 5.2 22.2 4.9 22.2 4.5V1.9ZM16.9 1.9C16.9 1.5 17.2 1.2 17.6 1.2C18 1.2 18.3 1.5 18.3 1.9V4.5C18.3 4.9 18 5.2 17.6 5.2C17.2 5.2 16.9 4.9 16.9 4.5V1.9ZM11.6 1.9C11.6 1.5 11.9 1.2 12.3 1.2C12.7 1.2 13 1.5 13 1.9V4.5C13 4.9 12.7 5.2 12.3 5.2C11.9 5.2 11.6 4.9 11.6 4.5V1.9ZM6.4 1.9C6.4 1.5 6.7 1.2 7.1 1.2C7.5 1.2 7.8 1.5 7.8 1.9V4.5C7.8 4.9 7.5 5.2 7.1 5.2C6.7 5.2 6.4 4.9 6.4 4.5V1.9ZM28.8 25.9C28.8 27.5 27.5 28.8 25.9 28.8H4.1C2.5 28.8 1.2 27.5 1.2 25.9V6.7C1.2 5.1 2.5 3.8 4.1 3.8H5.2V4.5C5.2 5.5 6.1 6.4 7.1 6.4C8.1 6.4 9 5.6 9 4.5V3.8H10.5V4.5C10.5 5.5 11.4 6.4 12.4 6.4C13.4 6.4 14.3 5.5 14.3 4.5V3.8H15.8V4.5C15.8 5.5 16.7 6.4 17.7 6.4C18.8 6.4 19.6 5.5 19.6 4.5V3.8H21V4.5C21 5.5 21.9 6.4 22.9 6.4C24 6.4 24.8 5.5 24.8 4.5V3.8H25.9C27.5 3.8 28.8 5.1 28.8 6.7V25.9Z" fill="#555555"/>
<path d="M25.9 7.90002H12.4C12.1 7.90002 11.8 8.20002 11.8 8.50002C11.8 8.80002 12.1 9.10002 12.4 9.10002H25.9C26.1 9.10002 26.2 9.20002 26.2 9.40002V25.9C26.2 26.1 26.1 26.2 25.9 26.2H4.10001C3.90001 26.2 3.80001 26.1 3.80001 25.9V9.40002C3.80001 9.20002 3.90001 9.10002 4.10001 9.10002H7.10001C7.40001 9.10002 7.70001 8.80002 7.70001 8.50002C7.70001 8.20002 7.40001 7.90002 7.10001 7.90002H4.10001C3.30001 7.90002 2.60001 8.60002 2.60001 9.40002V25.9C2.60001 26.7 3.30001 27.4 4.10001 27.4H25.9C26.7 27.4 27.4 26.7 27.4 25.9V9.40002C27.4 8.60002 26.7 7.90002 25.9 7.90002Z" fill="#555555"/>
<path d="M9.70001 9.10002C10 9.10002 10.3 8.80002 10.3 8.50002C10.3 8.20002 10 7.90002 9.70001 7.90002C9.40001 7.90002 9.10001 8.20002 9.10001 8.50002C9.10001 8.80002 9.40001 9.10002 9.70001 9.10002Z" fill="#555555"/>
<path d="M13.4 22.5C13.2 22.5 13 22.5 12.9 22.4C12.6 22.3 12.3 22 12.1 21.6L11.8 20.7C11.8 20.6 11.6 20.5 11.5 20.4L10.6 20.1C10.2 20 9.99999 19.7 9.79999 19.3C9.69999 19 9.69999 18.6 9.79999 18.2L10.2 17.4C10.3 17.3 10.3 17.1 10.2 17L9.79999 16.2C9.59999 15.9 9.59999 15.5 9.79999 15.1C9.89999 14.8 10.2 14.5 10.6 14.3L11.5 14C11.6 14 11.7 13.8 11.8 13.7L12.1 12.8C12.2 12.4 12.5 12.2 12.9 12C13.2 11.9 13.6 11.9 14 12L14.8 12.4C14.9 12.5 15.1 12.5 15.2 12.4L16 12C16.3 11.8 16.7 11.8 17.1 12C17.4 12.1 17.7 12.4 17.9 12.8L18.2 13.7C18.2 13.8 18.4 13.9 18.5 14L19.4 14.3C19.8 14.4 20 14.7 20.2 15.1C20.3 15.4 20.3 15.8 20.2 16.2L19.8 17C19.7 17.1 19.7 17.3 19.8 17.4L20.2 18.2C20.4 18.5 20.4 18.9 20.2 19.3C20.1 19.6 19.8 19.9 19.4 20.1L18.5 20.4C18.4 20.4 18.3 20.6 18.2 20.7L17.9 21.6C17.8 22 17.5 22.2 17.1 22.4C16.8 22.5 16.4 22.5 16 22.4L15.2 22C15.1 21.9 14.9 21.9 14.8 22L14 22.4C13.8 22.5 13.6 22.5 13.4 22.5ZM13.4 12.9C13.3 12.9 13.3 12.9 13.2 12.9C13.1 13 13 13.1 12.9 13.2L12.6 14.1C12.5 14.5 12.2 14.8 11.8 14.9L11 15.2C10.9 15.2 10.8 15.3 10.7 15.5C10.6 15.6 10.6 15.8 10.7 15.9L11.1 16.7C11.3 17.1 11.3 17.5 11.1 17.8L10.7 18.6C10.6 18.7 10.6 18.9 10.7 19C10.8 19.1 10.9 19.2 11 19.3L11.9 19.6C12.3 19.7 12.6 20 12.7 20.4L13 21.3C13 21.4 13.1 21.5 13.3 21.6C13.4 21.7 13.6 21.6 13.7 21.6L14.5 21.2C14.9 21 15.3 21 15.6 21.2L16.4 21.6C16.5 21.7 16.7 21.7 16.8 21.6C16.9 21.5 17 21.4 17.1 21.3L17.4 20.4C17.5 20 17.8 19.7 18.2 19.6L19.1 19.3C19.2 19.3 19.3 19.2 19.4 19C19.5 18.9 19.5 18.7 19.4 18.6L19 17.8C18.8 17.4 18.8 17 19 16.7L19.4 15.9C19.5 15.8 19.5 15.6 19.4 15.5C19.3 15.4 19.2 15.3 19.1 15.2L18.2 14.9C17.8 14.8 17.5 14.5 17.4 14.1L17.1 13.2C17.1 13.1 17 13 16.8 12.9C16.7 12.8 16.5 12.8 16.4 12.9L15.6 13.3C15.2 13.5 14.8 13.5 14.5 13.3L13.6 13C13.5 13 13.5 12.9 13.4 12.9Z" fill="#555555"/>
<path d="M13.7 16.9C13.2 16.9 12.8 16.5 12.8 16C12.8 15.5 13.2 15.1 13.7 15.1C14.2 15.1 14.6 15.5 14.6 16C14.6 16.5 14.2 16.9 13.7 16.9Z" fill="#555555"/>
<path d="M16.3 19.5C15.8 19.5 15.4 19.1 15.4 18.6C15.4 18.1 15.8 17.7 16.3 17.7C16.8 17.7 17.2 18.1 17.2 18.6C17.2 19.1 16.8 19.5 16.3 19.5Z" fill="#555555"/>
<path d="M13.7 19.5C13.6 19.5 13.5 19.5 13.4 19.4C13.2 19.3 13.2 19 13.3 18.8L15.9 15.3C16 15.1 16.3 15.1 16.5 15.2C16.7 15.3 16.7 15.6 16.6 15.8L14 19.3C14 19.4 13.8 19.5 13.7 19.5Z" fill="#555555"/>
</svg>
