<?xml version="1.0" encoding="utf-8"?>
<!-- Generator: Adobe Illustrator 22.1.0, SVG Export Plug-In . SVG Version: 6.00 Build 0)  -->
<svg version="1.1" id="Layer_1" xmlns="http://www.w3.org/2000/svg" xmlns:xlink="http://www.w3.org/1999/xlink" x="0px" y="0px"
	 viewBox="0 0 30 30" style="enable-background:new 0 0 30 30;" xml:space="preserve">
<style type="text/css">
	.st0{fill:none;}
	.st1{fill:#555555;}
</style>
<path class="st0" d="M5.8,11.9v15h4.7v-6.7c0-0.7,0.5-1.4,1.2-1.4h6.7c0.7,0,1.2,0.6,1.2,1.4v6.7h4.8V12.1l-9.4-8.8L5.8,11.9z"/>
<path class="st1" d="M29.8,14.1L15.6,0.9c-0.3-0.3-0.7-0.3-1,0L0.2,14.1c-0.3,0.3-0.3,0.7,0,1c0.3,0.3,0.7,0.3,1,0l2.5-2.3v15.5
	c0,0.5,0.3,0.9,0.7,0.9h7.3c0.4,0,0.7-0.4,0.7-0.9v-7.3h5.4v7.3c0,0.5,0.3,0.9,0.7,0.9h7.3c0.4,0,0.7-0.4,0.7-0.9V13.1l2.2,2.1
	c0.3,0.3,0.7,0.3,1,0c0.1-0.1,0.2-0.3,0.2-0.5C30,14.4,29.9,14.3,29.8,14.1z M25.1,27.6h-5.9v-7.3c0-0.5-0.3-0.9-0.7-0.9h-6.9
	c-0.4,0-0.7,0.4-0.7,0.9v7.3H5.1V11.6l10-9.2l10,9.4V27.6z"/>
</svg>
