<svg width="31" height="31" viewBox="0 0 31 31" fill="none" xmlns="http://www.w3.org/2000/svg">
<g clip-path="url(#clip0)">
<path d="M16.43 7.13C16.5334 7.23333 16.74 7.33667 16.8434 7.33667C17.05 7.33667 17.1534 7.23333 17.2567 7.13L20.0467 4.34C21.08 3.30667 21.08 1.75667 20.0467 0.723333C19.53 0.31 18.91 0 18.29 0C17.7734 0 17.36 0.103333 16.9467 0.413333C16.43 0.103333 16.0167 0 15.5 0C14.7767 0 14.1567 0.31 13.64 0.723333C13.1234 1.24 12.9167 1.86 12.9167 2.58333C12.9167 3.30667 13.2267 3.92667 13.64 4.44333L16.43 7.13ZM14.1567 2.58333C14.1567 2.27333 14.26 1.86 14.57 1.65333C14.88 1.44667 15.19 1.24 15.5 1.24C15.81 1.24 16.2234 1.34333 16.43 1.65333C16.6367 1.86 17.05 1.86 17.36 1.65333C17.8767 1.13667 18.7034 1.13667 19.22 1.65333C19.7367 2.17 19.7367 2.99667 19.22 3.51333L16.9467 5.78667L14.6734 3.51333C14.3634 3.20333 14.1567 2.89333 14.1567 2.58333Z" fill="#555555"/>
<path d="M12.2966 25.42L26.5566 11.16H26.66C28.21 9.61002 28.21 6.71668 28.21 6.51002C28.21 6.20002 27.9 5.89001 27.59 5.89001C27.4866 5.89001 24.49 5.89001 22.94 7.44001L19.9433 10.4367L5.06331 6.82001H4.95998H4.85664H4.64998L3.09998 8.37002V8.47335L2.99664 8.68001C2.99664 8.68001 2.99664 8.68002 2.99664 8.78335V8.88668V8.99002L3.09998 9.19668L3.20331 9.09335L3.09998 9.19668L13.33 16.8433L8.57664 21.7L6.09664 20.8734H5.88998H5.78664C5.78664 20.8734 5.78664 20.8734 5.68331 20.8734C5.68331 20.8734 5.68331 20.8734 5.57998 20.8734C5.57998 20.8734 5.57998 20.8734 5.47664 20.8734L3.09998 22.32H2.99664V22.4233C2.99664 22.4233 2.99664 22.4233 2.99664 22.5267C2.99664 22.5267 2.99664 22.5267 2.99664 22.63C2.99664 22.63 2.99664 22.63 2.99664 22.7333V22.8367V22.94C2.99664 22.94 2.99664 22.94 2.99664 23.0433V23.1467C2.99664 23.1467 2.99664 23.1467 3.09998 23.25C3.09998 23.25 3.09998 23.25 3.20331 23.3534L7.23331 25.8333L6.81998 26.2467C6.61331 26.4534 6.61331 26.8667 6.81998 27.1767C7.02664 27.3833 7.43998 27.3833 7.74998 27.1767L8.16331 26.7634L10.54 30.69V30.7933C10.54 30.7933 10.54 30.7934 10.6433 30.8967C10.6433 30.8967 10.6433 30.8967 10.7466 31L10.85 31.1034H10.9533C10.9533 31.1034 10.9533 31.1034 11.0566 31.1034C11.0566 31.1034 11.0566 31.1034 11.16 31.1034H11.2633C11.2633 31.1034 11.2633 31.1034 11.3666 31.1034C11.3666 31.1034 11.3666 31.1033 11.47 31L12.9166 28.6234L13.02 28.52H12.9166H13.02V28.4167L12.2966 25.42ZM11.0566 23.7667C11.2633 23.56 11.2633 23.1467 11.0566 22.8367C10.85 22.63 10.4366 22.63 10.1266 22.8367L8.16331 24.8L4.85664 22.8367L5.99331 22.1133L8.47331 22.94C8.47331 22.94 8.47331 22.94 8.57664 22.94C8.57664 22.94 8.57664 22.94 8.67998 22.94H8.78331H8.88664C8.88664 22.94 8.88664 22.94 8.98998 22.94C8.98998 22.94 8.98998 22.94 9.09331 22.8367L23.6633 8.37002C24.49 7.54335 25.8333 7.33668 26.7633 7.23335C26.66 8.06001 26.35 9.50668 25.6266 10.3333L11.16 24.8L11.0566 24.9034C11.0566 24.9034 11.0566 24.9033 11.0566 25.0067V25.11V25.2134H11.16H11.0566H11.16H11.0566H11.16L11.0566 25.3167V25.42L11.8833 28.0034L11.16 29.14L9.09331 25.8333L11.0566 23.7667ZM4.54664 8.78335L5.16664 8.16335L18.7033 11.5733L14.26 16.0167L4.54664 8.78335Z" fill="#555555"/>
<path d="M27.0733 28.83L23.87 16.0167C23.7666 15.7067 23.4566 15.5 23.1466 15.6033C22.8366 15.7067 22.63 16.0167 22.7333 16.3267L25.8333 28.7267L25.2133 29.3467L18.91 20.77C18.7033 20.46 18.29 20.46 17.98 20.6667C17.67 20.8733 17.67 21.2867 17.8766 21.5967L24.5933 30.69L24.6966 30.7933C24.6966 30.7933 24.6966 30.7933 24.8 30.7933C24.8 30.7933 24.8 30.7933 24.9033 30.7933H25.0066C25.0066 30.7933 25.0066 30.7933 25.11 30.7933C25.11 30.7933 25.11 30.7933 25.2133 30.7933H25.3166H25.42C25.42 30.7933 25.42 30.7933 25.5233 30.7933H25.6266H25.73L27.1766 29.3467H26.8666L26.97 29.45L27.0733 29.2433V28.83C27.1766 28.9333 27.1766 28.9333 27.0733 28.83Z" fill="#555555"/>
</g>
<defs>
<clipPath id="clip0">
<rect width="31" height="31" fill="white"/>
</clipPath>
</defs>
</svg>
