<svg width="18" height="18" viewBox="0 0 20 20" fill="none" xmlns="http://www.w3.org/2000/svg">
<path d="M16.6497 0.883884C16.9426 0.59099 17.4174 0.59099 17.7103 0.883883L19.1161 2.28967C19.409 2.58256 19.409 3.05744 19.1161 3.35033L13.3503 9.11612C12.8622 9.60427 12.8622 10.3957 13.3503 10.8839L19.1161 16.6497C19.409 16.9426 19.409 17.4174 19.1161 17.7103L17.7103 19.1161C17.4174 19.409 16.9426 19.409 16.6497 19.1161L10.8839 13.3503C10.3957 12.8622 9.60427 12.8622 9.11612 13.3503L3.35033 19.1161C3.05744 19.409 2.58256 19.409 2.28967 19.1161L0.883884 17.7103C0.59099 17.4174 0.59099 16.9426 0.883884 16.6497L6.64967 10.8839C7.13783 10.3957 7.13783 9.60427 6.64967 9.11612L0.883883 3.35033C0.59099 3.05744 0.59099 2.58256 0.883883 2.28967L2.28967 0.883884C2.58256 0.59099 3.05744 0.59099 3.35033 0.883884L9.11612 6.64967C9.60427 7.13783 10.3957 7.13783 10.8839 6.64967L16.6497 0.883884Z" fill="#FFFFFF" stroke="white" stroke-width="0.5"/>
</svg>
