<svg width="22" height="21" viewBox="0 0 22 21" fill="none" xmlns="http://www.w3.org/2000/svg">
<path d="M9.97221 0.399073C14.8634 0.399073 18.8331 4.31652 18.8331 9.14337C18.8331 13.9702 14.8634 17.8877 9.97221 17.8877C5.081 17.8877 1.11133 13.9702 1.11133 9.14337C1.11133 4.31652 5.081 0.399073 9.97221 0.399073ZM9.97221 15.9445C13.7794 15.9445 16.864 12.9005 16.864 9.14337C16.864 5.38526 13.7794 2.34225 9.97221 2.34225C6.164 2.34225 3.08041 5.38526 3.08041 9.14337C3.08041 12.9005 6.164 15.9445 9.97221 15.9445ZM18.326 16.0135L21.1113 18.7611L19.7182 20.1359L16.9339 17.3873L18.326 16.0135Z" fill="white" stroke="white" stroke-width="0.5"/>
</svg>
