<svg width="113" height="26" viewBox="0 0 113 26" fill="none" xmlns="http://www.w3.org/2000/svg">
<g filter="url(#filter0_d_5482_2403)">
<rect x="4" y="4" width="105" height="18" rx="9" fill="white"/>
</g>
<path d="M24.6856 9.625H26.9073C27.8578 9.625 28.5772 9.75846 29.0655 10.0254C29.5537 10.2923 29.7979 10.7611 29.7979 11.4316C29.7979 11.7018 29.7539 11.946 29.666 12.1641C29.5814 12.3822 29.4577 12.5612 29.2949 12.7012C29.1322 12.8411 28.9336 12.9323 28.6992 12.9746V13.0234C28.9369 13.0723 29.1517 13.1569 29.3438 13.2773C29.5358 13.3945 29.6888 13.5671 29.8028 13.7949C29.9199 14.0195 29.9785 14.319 29.9785 14.6934C29.9785 15.1263 29.8727 15.4974 29.6612 15.8066C29.4496 16.1159 29.1468 16.3535 28.753 16.5195C28.3623 16.6823 27.8968 16.7637 27.3565 16.7637H24.6856V9.625ZM26.1992 12.4521H27.0782C27.5176 12.4521 27.822 12.3838 27.9912 12.2471C28.1605 12.1071 28.2451 11.902 28.2451 11.6318C28.2451 11.3584 28.1442 11.1631 27.9424 11.0459C27.7438 10.9255 27.4281 10.8652 26.9951 10.8652H26.1992V12.4521ZM26.1992 13.6533V15.5137H27.1856C27.6413 15.5137 27.9587 15.4258 28.1377 15.25C28.3168 15.0742 28.4063 14.8382 28.4063 14.542C28.4063 14.3662 28.3672 14.2116 28.2891 14.0781C28.211 13.9447 28.0791 13.8405 27.8936 13.7656C27.7113 13.6908 27.459 13.6533 27.1367 13.6533H26.1992ZM36.2969 11.3047V16.7637H35.1543L34.9541 16.0654H34.876C34.7588 16.251 34.6123 16.4023 34.4366 16.5195C34.2608 16.6367 34.0671 16.723 33.8555 16.7783C33.6439 16.8337 33.4242 16.8613 33.1963 16.8613C32.8057 16.8613 32.4655 16.793 32.1758 16.6562C31.8861 16.5163 31.6599 16.2998 31.4971 16.0068C31.3376 15.7139 31.2578 15.333 31.2578 14.8643V11.3047H32.7471V14.4932C32.7471 14.8838 32.8171 15.1784 32.9571 15.377C33.097 15.5755 33.32 15.6748 33.626 15.6748C33.9287 15.6748 34.1664 15.6064 34.3389 15.4697C34.5114 15.3298 34.6319 15.1263 34.7002 14.8594C34.7718 14.5892 34.8076 14.2604 34.8076 13.873V11.3047H36.2969ZM40.96 11.2021C41.5427 11.2021 42.0114 11.3617 42.3662 11.6807C42.7211 11.9964 42.8985 12.5042 42.8985 13.2041V16.7637H41.4092V13.5752C41.4092 13.1846 41.3376 12.89 41.1944 12.6914C41.0544 12.4928 40.833 12.3936 40.5303 12.3936C40.0746 12.3936 39.7637 12.5482 39.5977 12.8574C39.4317 13.1667 39.3487 13.6126 39.3487 14.1953V16.7637H37.8594V11.3047H38.9971L39.1973 12.0029H39.2803C39.3975 11.8141 39.5423 11.6611 39.7149 11.5439C39.8907 11.4268 40.0843 11.3405 40.2959 11.2852C40.5108 11.2298 40.7321 11.2021 40.96 11.2021ZM46.1602 16.8613C45.5515 16.8613 45.055 16.6237 44.6709 16.1484C44.2901 15.6699 44.0996 14.9684 44.0996 14.0439C44.0996 13.1097 44.2933 12.4033 44.6807 11.9248C45.0681 11.443 45.5742 11.2021 46.1992 11.2021C46.4597 11.2021 46.6892 11.238 46.8877 11.3096C47.0863 11.3812 47.2572 11.4772 47.4004 11.5977C47.5469 11.7181 47.6706 11.8532 47.7715 12.0029H47.8203C47.8008 11.8988 47.7764 11.7458 47.7471 11.5439C47.7211 11.3389 47.708 11.1289 47.708 10.9141V9.16602H49.2022V16.7637H48.0596L47.7715 16.0557H47.708C47.6136 16.2054 47.4948 16.3421 47.3516 16.4658C47.2116 16.5863 47.044 16.6823 46.8487 16.7539C46.6533 16.8255 46.4239 16.8613 46.1602 16.8613ZM46.6826 15.6748C47.0895 15.6748 47.376 15.5544 47.542 15.3135C47.7113 15.0693 47.8008 14.7031 47.8106 14.2148V14.0537C47.8106 13.5231 47.7292 13.1178 47.5664 12.8379C47.4037 12.5547 47.1009 12.4131 46.6582 12.4131C46.3295 12.4131 46.0723 12.5547 45.8867 12.8379C45.7012 13.1211 45.6084 13.5296 45.6084 14.0635C45.6084 14.5973 45.7012 14.9993 45.8867 15.2695C46.0755 15.5397 46.3408 15.6748 46.6826 15.6748ZM52.2491 16.7637H50.7598V9.16602H52.2491V16.7637ZM56.0674 11.2021C56.572 11.2021 57.0065 11.2998 57.3711 11.4951C57.7357 11.6872 58.0173 11.9671 58.2158 12.335C58.4144 12.7028 58.5137 13.152 58.5137 13.6826V14.4053H54.9932C55.0095 14.8252 55.1348 15.1556 55.3692 15.3965C55.6068 15.6341 55.9356 15.7529 56.3555 15.7529C56.7038 15.7529 57.0228 15.7171 57.3125 15.6455C57.6022 15.5739 57.9001 15.4665 58.2061 15.3232V16.4756C57.9359 16.609 57.6527 16.7067 57.3565 16.7686C57.0635 16.8304 56.7071 16.8613 56.2871 16.8613C55.7403 16.8613 55.2552 16.7604 54.8321 16.5586C54.4121 16.3568 54.0817 16.0492 53.8408 15.6357C53.6032 15.2223 53.4844 14.7015 53.4844 14.0732C53.4844 13.4352 53.5918 12.9046 53.8067 12.4814C54.0248 12.055 54.3275 11.736 54.7149 11.5244C55.1022 11.3096 55.5531 11.2021 56.0674 11.2021ZM56.0772 12.2617C55.7875 12.2617 55.5466 12.3545 55.3545 12.54C55.1657 12.7256 55.0567 13.0169 55.0274 13.4141H57.1172C57.114 13.1927 57.0733 12.9958 56.9951 12.8232C56.9203 12.6507 56.8063 12.514 56.6533 12.4131C56.5036 12.3122 56.3116 12.2617 56.0772 12.2617ZM64.7198 9.625C65.641 9.625 66.3132 9.82357 66.7364 10.2207C67.1595 10.6146 67.3711 11.1582 67.3711 11.8516C67.3711 12.1641 67.3239 12.4635 67.2295 12.75C67.1351 13.0332 66.9805 13.2855 66.7657 13.5068C66.5541 13.7282 66.2709 13.904 65.916 14.0342C65.5612 14.1611 65.1234 14.2246 64.6026 14.2246H63.9532V16.7637H62.4395V9.625H64.7198ZM64.6416 10.8652H63.9532V12.9844H64.4512C64.7344 12.9844 64.9802 12.9469 65.1885 12.8721C65.3968 12.7972 65.558 12.68 65.6719 12.5205C65.7858 12.361 65.8428 12.1559 65.8428 11.9053C65.8428 11.5537 65.7451 11.2933 65.5498 11.124C65.3545 10.9515 65.0518 10.8652 64.6416 10.8652ZM70.8379 11.1924C71.5703 11.1924 72.1319 11.3519 72.5225 11.6709C72.9131 11.9899 73.1084 12.4749 73.1084 13.126V16.7637H72.0684L71.7803 16.0215H71.7412C71.585 16.2168 71.4255 16.3763 71.2627 16.5C71.1 16.6237 70.9128 16.7148 70.7012 16.7734C70.4896 16.832 70.2324 16.8613 69.9297 16.8613C69.6074 16.8613 69.3177 16.7995 69.0606 16.6758C68.8067 16.5521 68.6065 16.3633 68.46 16.1094C68.3135 15.8522 68.2403 15.5267 68.2403 15.1328C68.2403 14.5534 68.4437 14.127 68.8506 13.8535C69.2575 13.5768 69.8679 13.4238 70.6817 13.3945L71.6289 13.3652V13.126C71.6289 12.8395 71.5541 12.6296 71.4043 12.4961C71.2546 12.3626 71.0463 12.2959 70.7793 12.2959C70.5157 12.2959 70.2569 12.3333 70.003 12.4082C69.7491 12.4831 69.4951 12.5775 69.2412 12.6914L68.7481 11.6855C69.0378 11.5326 69.3617 11.4121 69.7198 11.3242C70.0811 11.2363 70.4538 11.1924 70.8379 11.1924ZM71.6289 14.2344L71.0528 14.2539C70.571 14.2669 70.2357 14.3532 70.0469 14.5127C69.8614 14.6722 69.7686 14.8822 69.7686 15.1426C69.7686 15.3704 69.8353 15.5332 69.9688 15.6309C70.1022 15.7253 70.2764 15.7725 70.4912 15.7725C70.8102 15.7725 71.0788 15.6781 71.2969 15.4893C71.5183 15.3005 71.6289 15.0319 71.6289 14.6836V14.2344ZM76.8633 16.8613C76.3229 16.8613 75.8623 16.7637 75.4815 16.5684C75.1006 16.3698 74.8109 16.0638 74.6123 15.6504C74.4138 15.237 74.3145 14.708 74.3145 14.0635C74.3145 13.3962 74.4268 12.8525 74.6514 12.4326C74.8793 12.0094 75.1934 11.6986 75.5938 11.5C75.9974 11.3014 76.4645 11.2021 76.9951 11.2021C77.3727 11.2021 77.6983 11.2396 77.9717 11.3145C78.2484 11.3861 78.4893 11.4723 78.6944 11.5732L78.2549 12.7256C78.0205 12.6312 77.8024 12.5547 77.6006 12.4961C77.3988 12.4342 77.197 12.4033 76.9951 12.4033C76.7347 12.4033 76.5183 12.4652 76.3457 12.5889C76.1732 12.7093 76.0446 12.8916 75.96 13.1357C75.8754 13.3799 75.833 13.6859 75.833 14.0537C75.833 14.415 75.8786 14.7145 75.9698 14.9521C76.0609 15.1898 76.1927 15.3672 76.3653 15.4844C76.5378 15.5983 76.7477 15.6553 76.9951 15.6553C77.3044 15.6553 77.5795 15.6146 77.8203 15.5332C78.0612 15.4486 78.2956 15.3314 78.5235 15.1816V16.4561C78.2956 16.5993 78.0563 16.7018 77.8057 16.7637C77.5583 16.8288 77.2442 16.8613 76.8633 16.8613ZM81.2823 9.16602V12.5645C81.2823 12.7695 81.2741 12.9746 81.2578 13.1797C81.2416 13.3848 81.2237 13.5898 81.2041 13.7949H81.2237C81.3246 13.6517 81.4271 13.5101 81.5313 13.3701C81.6387 13.2301 81.7526 13.0951 81.8731 12.9648L83.4014 11.3047H85.0811L82.9131 13.6729L85.2129 16.7637H83.4942L81.9219 14.5518L81.2823 15.0645V16.7637H79.793V9.16602H81.2823ZM88.2305 11.1924C88.9629 11.1924 89.5244 11.3519 89.9151 11.6709C90.3057 11.9899 90.501 12.4749 90.501 13.126V16.7637H89.461L89.1729 16.0215H89.1338C88.9776 16.2168 88.8181 16.3763 88.6553 16.5C88.4925 16.6237 88.3054 16.7148 88.0938 16.7734C87.8822 16.832 87.625 16.8613 87.3223 16.8613C87 16.8613 86.7103 16.7995 86.4532 16.6758C86.1992 16.5521 85.9991 16.3633 85.8526 16.1094C85.7061 15.8522 85.6328 15.5267 85.6328 15.1328C85.6328 14.5534 85.8363 14.127 86.2432 13.8535C86.6501 13.5768 87.2604 13.4238 88.0742 13.3945L89.0215 13.3652V13.126C89.0215 12.8395 88.9466 12.6296 88.7969 12.4961C88.6472 12.3626 88.4388 12.2959 88.1719 12.2959C87.9082 12.2959 87.6494 12.3333 87.3955 12.4082C87.1416 12.4831 86.8877 12.5775 86.6338 12.6914L86.1407 11.6855C86.4304 11.5326 86.7543 11.4121 87.1123 11.3242C87.4737 11.2363 87.8464 11.1924 88.2305 11.1924ZM89.0215 14.2344L88.4453 14.2539C87.9636 14.2669 87.6283 14.3532 87.4395 14.5127C87.2539 14.6722 87.1612 14.8822 87.1612 15.1426C87.1612 15.3704 87.2279 15.5332 87.3614 15.6309C87.4948 15.7253 87.669 15.7725 87.8838 15.7725C88.2028 15.7725 88.4714 15.6781 88.6895 15.4893C88.9108 15.3005 89.0215 15.0319 89.0215 14.6836V14.2344ZM93.6358 19.166C92.8741 19.166 92.2914 19.0326 91.8877 18.7656C91.4873 18.502 91.2871 18.1309 91.2871 17.6523C91.2871 17.3236 91.3897 17.0485 91.5948 16.8271C91.7998 16.6058 92.1009 16.4479 92.4981 16.3535C92.3451 16.2884 92.2116 16.1826 92.0977 16.0361C91.9838 15.8864 91.9268 15.7285 91.9268 15.5625C91.9268 15.3542 91.987 15.1816 92.1075 15.0449C92.2279 14.9049 92.402 14.7682 92.6299 14.6348C92.3435 14.5111 92.1156 14.3125 91.9463 14.0391C91.7803 13.7656 91.6973 13.4434 91.6973 13.0723C91.6973 12.6751 91.7836 12.3382 91.9561 12.0615C92.1319 11.7816 92.3858 11.5684 92.7178 11.4219C93.0531 11.2754 93.46 11.2021 93.9385 11.2021C94.0394 11.2021 94.1566 11.2087 94.2901 11.2217C94.4235 11.2347 94.5456 11.2493 94.6563 11.2656C94.7702 11.2819 94.8467 11.2949 94.8858 11.3047H96.7901V12.0615L95.9356 12.2812C96.0137 12.4017 96.0723 12.5303 96.1114 12.667C96.1504 12.8037 96.17 12.9486 96.17 13.1016C96.17 13.6875 95.9649 14.1449 95.5547 14.4736C95.1478 14.7992 94.5814 14.9619 93.8555 14.9619C93.683 14.9521 93.5202 14.9391 93.3672 14.9229C93.2923 14.9814 93.2354 15.0433 93.1963 15.1084C93.1573 15.1735 93.1377 15.2419 93.1377 15.3135C93.1377 15.3851 93.167 15.4453 93.2256 15.4941C93.2875 15.5397 93.3786 15.5755 93.4991 15.6016C93.6228 15.6243 93.7757 15.6357 93.958 15.6357H94.8858C95.4847 15.6357 95.9405 15.7643 96.253 16.0215C96.5687 16.2786 96.7266 16.6562 96.7266 17.1543C96.7266 17.7923 96.4597 18.2871 95.9258 18.6387C95.3952 18.9902 94.6319 19.166 93.6358 19.166ZM93.6992 18.1943C94.0541 18.1943 94.3584 18.1602 94.6123 18.0918C94.8695 18.0267 95.0664 17.9323 95.2032 17.8086C95.3399 17.6882 95.4082 17.5433 95.4082 17.374C95.4082 17.2373 95.3675 17.1283 95.2862 17.0469C95.208 16.9688 95.0876 16.9134 94.9248 16.8809C94.7653 16.8483 94.5603 16.832 94.3096 16.832H93.5381C93.3558 16.832 93.1914 16.8613 93.045 16.9199C92.9017 16.9785 92.7878 17.0599 92.7032 17.1641C92.6185 17.2715 92.5762 17.3952 92.5762 17.5352C92.5762 17.7402 92.6739 17.9014 92.8692 18.0186C93.0677 18.1357 93.3444 18.1943 93.6992 18.1943ZM93.9385 14.0537C94.2185 14.0537 94.4235 13.9674 94.5537 13.7949C94.6839 13.6224 94.7491 13.388 94.7491 13.0918C94.7491 12.763 94.6807 12.5173 94.544 12.3545C94.4105 12.1885 94.2087 12.1055 93.9385 12.1055C93.6651 12.1055 93.46 12.1885 93.3233 12.3545C93.1866 12.5173 93.1182 12.763 93.1182 13.0918C93.1182 13.388 93.1849 13.6224 93.3184 13.7949C93.4551 13.9674 93.6618 14.0537 93.9385 14.0537ZM99.9444 11.2021C100.449 11.2021 100.883 11.2998 101.248 11.4951C101.613 11.6872 101.894 11.9671 102.093 12.335C102.291 12.7028 102.391 13.152 102.391 13.6826V14.4053H98.8701C98.8864 14.8252 99.0117 15.1556 99.2461 15.3965C99.4838 15.6341 99.8125 15.7529 100.232 15.7529C100.581 15.7529 100.9 15.7171 101.189 15.6455C101.479 15.5739 101.777 15.4665 102.083 15.3232V16.4756C101.813 16.609 101.53 16.7067 101.233 16.7686C100.94 16.8304 100.584 16.8613 100.164 16.8613C99.6172 16.8613 99.1322 16.7604 98.709 16.5586C98.2891 16.3568 97.9587 16.0492 97.7178 15.6357C97.4802 15.2223 97.3614 14.7015 97.3614 14.0732C97.3614 13.4352 97.4688 12.9046 97.6836 12.4814C97.9017 12.055 98.2045 11.736 98.5918 11.5244C98.9792 11.3096 99.43 11.2021 99.9444 11.2021ZM99.9541 12.2617C99.6644 12.2617 99.4235 12.3545 99.2315 12.54C99.0427 12.7256 98.9336 13.0169 98.9043 13.4141H100.994C100.991 13.1927 100.95 12.9958 100.872 12.8232C100.797 12.6507 100.683 12.514 100.53 12.4131C100.381 12.3122 100.189 12.2617 99.9541 12.2617Z" fill="#5A5A5A"/>
<g clip-path="url(#clip0_5482_2403)">
<path d="M10.3252 11.0552L15.0018 12.8393C15.0936 12.875 15.1948 12.8889 15.295 12.8796C15.3952 12.8889 15.4964 12.875 15.5883 12.8393L20.2648 11.0552C20.3675 11.0159 20.4547 10.9518 20.5159 10.8708C20.5771 10.7897 20.6097 10.6951 20.6097 10.5984C20.6097 10.5018 20.5771 10.4071 20.5159 10.3261C20.4547 10.245 20.3675 10.1809 20.2648 10.1416L15.5883 8.34187C15.4957 8.30628 15.3939 8.29226 15.2931 8.30121C15.1922 8.29226 15.0904 8.30628 14.9979 8.34187L10.3213 10.1416C10.2187 10.1809 10.1314 10.245 10.0702 10.3261C10.009 10.4071 9.97644 10.5018 9.97644 10.5984C9.97644 10.6951 10.009 10.7897 10.0702 10.8708C10.1314 10.9518 10.2187 11.0159 10.3213 11.0552H10.3252ZM15.295 9.32375L18.601 10.5959L15.295 11.8564L11.9894 10.5963L15.295 9.32375Z" fill="#C6436A"/>
<path d="M10.3262 12.8726L15.0028 14.6557C15.0946 14.6914 15.1958 14.7053 15.296 14.696C15.3962 14.7053 15.4974 14.6914 15.5893 14.6557L20.2658 12.8726C20.4067 12.8188 20.517 12.7191 20.5725 12.5954C20.628 12.4717 20.624 12.334 20.5616 12.2128C20.4991 12.0916 20.3832 11.9967 20.2394 11.9489C20.0956 11.9012 19.9357 11.9046 19.7947 11.9583L15.2964 13.6725L10.7973 11.9577C10.7275 11.9311 10.6522 11.9165 10.5759 11.9149C10.4995 11.9133 10.4236 11.9247 10.3523 11.9484C10.2811 11.972 10.216 12.0075 10.1607 12.0528C10.1054 12.0982 10.061 12.1524 10.0301 12.2125C9.99913 12.2725 9.98225 12.3373 9.9804 12.403C9.97854 12.4686 9.99174 12.534 10.0192 12.5953C10.0467 12.6566 10.088 12.7126 10.1407 12.7602C10.1933 12.8078 10.2564 12.8459 10.3262 12.8726Z" fill="#C6436A"/>
<path d="M19.7949 13.6725L15.2962 15.3863L10.797 13.6725C10.7273 13.6459 10.6521 13.6313 10.5758 13.6297C10.4995 13.6281 10.4236 13.6394 10.3524 13.6631C10.2812 13.6867 10.2161 13.7222 10.1608 13.7674C10.1055 13.8127 10.0611 13.8669 10.0302 13.9269C9.99928 13.987 9.9824 14.0517 9.98052 14.1173C9.97865 14.1829 9.99182 14.2483 10.0193 14.3095C10.0467 14.3708 10.088 14.4268 10.1406 14.4743C10.1932 14.5219 10.2562 14.5601 10.326 14.5867L15.0025 16.3698C15.0944 16.4055 15.1956 16.4194 15.2958 16.4101C15.396 16.4194 15.4972 16.4055 15.589 16.3698L20.2656 14.585C20.3394 14.5609 20.4068 14.5241 20.4636 14.4768C20.5203 14.4296 20.5653 14.3728 20.5957 14.3101C20.6261 14.2474 20.6413 14.18 20.6405 14.112C20.6396 14.044 20.6226 13.977 20.5905 13.9148C20.5585 13.8527 20.5121 13.7969 20.4541 13.7507C20.3961 13.7045 20.3278 13.669 20.2533 13.6463C20.1789 13.6237 20.0998 13.6143 20.021 13.6188C19.9422 13.6233 19.8652 13.6415 19.7949 13.6725Z" fill="#C6436A"/>
<path d="M19.7949 15.3843L15.2962 17.0998L10.797 15.3843C10.7273 15.3577 10.6521 15.3432 10.5758 15.3416C10.4995 15.34 10.4236 15.3513 10.3524 15.3749C10.2812 15.3986 10.2161 15.434 10.1608 15.4793C10.1055 15.5246 10.0611 15.5788 10.0302 15.6388C9.99928 15.6988 9.9824 15.7635 9.98052 15.8292C9.97865 15.8948 9.99182 15.9601 10.0193 16.0214C10.0467 16.0826 10.088 16.1387 10.1406 16.1862C10.1932 16.2338 10.2562 16.2719 10.326 16.2986L15.0025 18.0817C15.0944 18.1174 15.1956 18.1313 15.2958 18.122C15.396 18.1313 15.4972 18.1174 15.589 18.0817L20.2656 16.2986C20.4065 16.2448 20.5168 16.1451 20.5723 16.0214C20.6277 15.8977 20.6238 15.76 20.5614 15.6388C20.4989 15.5176 20.383 15.4227 20.2392 15.3749C20.0954 15.3272 19.9354 15.3306 19.7945 15.3843H19.7949Z" fill="#C6436A"/>
</g>
<defs>
<filter id="filter0_d_5482_2403" x="0" y="0" width="113" height="26" filterUnits="userSpaceOnUse" color-interpolation-filters="sRGB">
<feFlood flood-opacity="0" result="BackgroundImageFix"/>
<feColorMatrix in="SourceAlpha" type="matrix" values="0 0 0 0 0 0 0 0 0 0 0 0 0 0 0 0 0 0 127 0" result="hardAlpha"/>
<feOffset/>
<feGaussianBlur stdDeviation="2"/>
<feColorMatrix type="matrix" values="0 0 0 0 0 0 0 0 0 0 0 0 0 0 0 0 0 0 0.25 0"/>
<feBlend mode="normal" in2="BackgroundImageFix" result="effect1_dropShadow_5482_2403"/>
<feBlend mode="normal" in="SourceGraphic" in2="effect1_dropShadow_5482_2403" result="shape"/>
</filter>
<clipPath id="clip0_5482_2403">
<rect width="10.6315" height="9.82578" fill="white" transform="translate(9.98035 8.29883)"/>
</clipPath>
</defs>
</svg>
