<?xml version="1.0" encoding="utf-8"?>
<!-- Generator: Adobe Illustrator 22.1.0, SVG Export Plug-In . SVG Version: 6.00 Build 0)  -->
<svg version="1.1" id="Capa_1" xmlns="http://www.w3.org/2000/svg" xmlns:xlink="http://www.w3.org/1999/xlink" x="0px" y="0px"
	 viewBox="0 0 30 30" style="enable-background:new 0 0 30 30;" xml:space="preserve">
<style type="text/css">
	.st0{fill:#555555;}
</style>
<g>
	<path class="st0" d="M13.8,9.6L13.8,9.6L13.8,9.6l2.3,2.4c0.1,0.1,0.2,0.1,0.3,0.1s0.2,0,0.3-0.1l2.4-2.3c0.8-0.9,0.8-2.3,0-3.2
		c-0.4-0.4-0.9-0.6-1.4-0.6c-0.5,0-0.9,0.2-1.3,0.5C16.1,6.2,15.6,6,15.1,6c-0.5,0-1.1,0.2-1.4,0.6C12.9,7.4,12.9,8.8,13.8,9.6
		L13.8,9.6z M14.4,7.2C14.6,7,14.8,6.9,15,6.9c0.3,0,0.6,0.1,0.8,0.3l0,0c0.2,0.2,0.3,0.3,0.6,0.3c0.3,0,0.4-0.1,0.6-0.3l0,0
		c0.4-0.4,1-0.5,1.4-0.1C19,7.7,19,8.5,18.5,9l-2.1,2l-2-2C13.9,8.5,13.9,7.7,14.4,7.2z M13.8,9.6L13.8,9.6L13.8,9.6L13.8,9.6z"/>
	<path class="st0" d="M23.5,20l-0.1,0c-0.1,0-0.2-0.1-0.3-0.1v-0.6c1.1-0.7,1.9-2,1.9-3.1v-1.8c0-2-1.6-3.6-3.6-3.6
		c-2.1,0-3.7,1.6-3.7,3.6v1.8c0,1.1,0.8,2.3,1.9,3.1v0.6c-0.1,0-0.2,0.1-0.4,0.1l-0.1,0c-0.1,0-0.2,0.1-0.4,0.1l0,0
		c-0.9,0.2-1.7,0.6-2.3,1.3c-0.1-0.1-0.2-0.2-0.3-0.3l-0.7-5v-1.4c0-2.1-1.7-3.8-3.8-3.8s-3.8,1.7-3.8,3.8l0,1.4l-0.7,5
		c-0.5,0.5-0.7,1.1-0.8,1.9v2.7c0,0.3,0.2,0.5,0.5,0.5h3.1c0.3,0,0.5-0.2,0.5-0.5s-0.2-0.5-0.5-0.5H9.1v-1.7c0,0,0-0.1,0-0.2
		c0-0.1,0-0.1,0-0.1c0,0,0.1,0,0.1-0.1c0.5-0.3,1.6-0.2,2,0.2c0.2,0.2,0.5,0.2,0.7,0c0.4-0.4,1.5-0.5,2-0.2c0.1,0,0.1,0.1,0.1,0.1
		c0,0.2,0,1.4,0,2h-0.8c-0.3,0-0.5,0.2-0.5,0.5s0.2,0.5,0.5,0.5h12.8c0.3,0,0.5-0.2,0.5-0.5V23C26.6,20.9,24.9,20.4,23.5,20z
		 M17.7,23.5c0,0.2,0,0.4,0.2,0.5l1.7,1.1h-2.7V23c0-0.9,0.5-1.4,1.2-1.7L17.7,23.5z M23.9,23.4l-1.4,0.9l1.1-2.2L23.9,23.4z
		 M20.6,21.3L20,21.8l-0.4-0.9c0.1,0,0.3-0.1,0.4-0.1L20.6,21.3z M20.9,14.5c-0.4-0.2-0.9-0.5-1.6-0.5c-0.2,0-0.4,0-0.6,0
		c0.2-1.3,1.3-2.2,2.6-2.2c1.4,0,2.6,1.1,2.6,2.5C22.3,15.1,21.6,14.8,20.9,14.5z M18.7,15.1c0.8-0.2,1.2,0,1.8,0.3
		c0.5,0.2,1,0.5,1.7,0.5c0.5,0,1.1-0.1,1.8-0.4v0.7c0,0.4-0.2,1-0.6,1.5c-0.4,0.5-0.9,0.9-1.4,1.1c-0.5,0.2-0.8,0.2-1.2,0
		c-1.1-0.4-2-1.6-2-2.6V15.1z M22,21.4l0.6-0.5c0.1,0,0.2,0.1,0.4,0.1l-0.4,0.9L22,21.4z M22.1,19.8V20l-0.8,0.7L20.5,20v-0.3
		C21.1,19.9,21.5,19.9,22.1,19.8z M22.1,22.8l-0.8,1.8l-0.8-1.8l0.8-0.8L22.1,22.8z M20.1,24.3l-1.4-0.9l0.3-1.4L20.1,24.3z
		 M24.9,23.5l-0.5-2.2c0.7,0.3,1.2,0.7,1.2,1.7v2.2H23l1.7-1.1C24.9,24,25,23.8,24.9,23.5z M14.5,22.3c-0.7-0.4-2-0.4-2.9,0.1
		c-0.9-0.5-2.2-0.5-2.9-0.1c-0.6,0.3-0.7,0.6-0.6,1.1l0,0c0,0,0,0.1,0,0.1v1.7H7.3V23c0-1.2,0.8-1.6,2.4-2c0.3-0.1,0.6-0.2,0.8-0.2
		c0.2-0.1,0.3-0.3,0.3-0.5v-0.4c0.5,0.2,1,0.2,1.5,0v0.4c0,0.2,0.1,0.4,0.3,0.5c0.3,0.1,0.6,0.2,0.8,0.2c1.6,0.4,2.4,0.8,2.4,2v2.2
		h-0.8v-1.7c0-0.1,0-0.1,0-0.2C15.1,22.8,15,22.6,14.5,22.3z M8.1,20.4l0.4-2.6c0.3,0.6,0.8,1.2,1.3,1.6v0.5c-0.1,0-0.2,0.1-0.3,0.1
		l-0.1,0C9,20.1,8.6,20.2,8.1,20.4z M9.2,16.2c0.5-0.3,0.9-0.6,1.2-1c0.9,0.6,2.1,1,3.5,1.3v0.1c0,0.9-0.9,2-1.8,2.3
		c-0.4,0.2-0.7,0.2-1.1,0c-1-0.4-1.8-1.5-1.8-2.3V16.2z M13.8,20l-0.1,0c-0.1,0-0.2-0.1-0.3-0.1v-0.5c0.6-0.4,1-1,1.3-1.6l0.4,2.6
		C14.7,20.2,14.2,20.1,13.8,20z M14.5,15.6c-1.6-0.3-2.9-0.8-3.8-1.4c-0.1-0.1-0.2-0.1-0.3-0.1c0,0,0,0-0.1,0
		c-0.1,0-0.2,0.1-0.3,0.2c-0.2,0.3-0.5,0.6-1.2,1.1v-0.6c0-1.6,1.3-2.9,2.8-2.9s2.8,1.3,2.8,2.9V15.6z"/>
	<path class="st0" d="M11.6,25.2c-0.3,0-0.5,0.2-0.5,0.5s0.2,0.5,0.5,0.5c0.3,0,0.5-0.2,0.5-0.5S11.9,25.2,11.6,25.2z"/>
</g>
<g>
	<path class="st0" d="M13,3.1C13,3.1,13,3,13,3.1l-0.2-0.2c0,0-0.1,0-0.1-0.1h-0.1c-0.1,0-0.2,0-0.2,0h-0.1c0,0-0.1,0-0.1,0.1
		c0,0-0.1,0-0.1,0.1c0,0.1,0,0.1-0.1,0.1c0,0,0,0.1-0.1,0.1v0.1v0.1v0.1v0.1c0,0,0,0.1,0.1,0.1c0,0,0,0.1,0.1,0.1l0.1,0.1
		c0,0,0.1,0,0.1,0.1h0.1h0.1h0.1h0.1c0,0,0.1,0,0.1-0.1c0,0,0.1,0,0.1-0.1L13,3.7c0,0,0-0.1,0.1-0.1V3.5V3.4V3.3
		C13.1,3.3,13.1,3.3,13,3.1C13.1,3.2,13.1,3.1,13,3.1z"/>
	<path class="st0" d="M26.6,2.9c-0.4-1.5-1.7-2.6-3.3-2.6H5.1C2.3,0.3,0,2.6,0,5.4v18.3c0,1.8,1.5,3.3,3.3,3.4
		c0.4,1.5,1.7,2.6,3.3,2.6h20c1.9,0,3.4-1.5,3.4-3.4v-4.4V6.3C29.9,4.4,28.4,2.9,26.6,2.9z M28.8,6.9v13.6v1.4v3.4v0.2v0.7v0.2h-0.1
		c-0.1,1.1-1.1,1.9-2.2,1.9H6.6c-0.9,0-1.7-0.6-2.1-1.4c-0.1-0.1-0.1-0.3-0.1-0.5c0,0,0,0,0,0c0,0-0.1,0-0.1,0h0v-0.2v-0.4v-2.7
		v-2.3v-0.2V6.9V6.3c0-1.2,1-2.2,2.2-2.2h3.6c0.3,0,0.6-0.3,0.6-0.6c0-0.3-0.3-0.6-0.6-0.6H6.6c-1.9,0-3.4,1.5-3.4,3.4V23v2.9
		c-1.1-0.1-2-1-2-2.2V5.4c0-2.1,1.7-3.9,3.9-3.9h18.3c0.9,0,1.7,0.6,2.1,1.4H14.9c-0.3,0-0.6,0.3-0.6,0.6c0,0.3,0.3,0.6,0.6,0.6
		h10.8h1.2c1.1,0.1,2,1,2,2.2V6.9z"/>
</g>
</svg>
