<svg width="59" height="31" viewBox="0 0 59 31" fill="none" xmlns="http://www.w3.org/2000/svg">
<g clip-path="url(#clip0_2818_261)">
<path d="M27.7999 10.6L30.0999 13C30.1999 13.1 30.2999 13.1 30.3999 13.1C30.4999 13.1 30.5999 13.1 30.6999 13L33.0999 10.7C33.8999 9.79999 33.8999 8.39999 33.0999 7.49999C32.6999 7.09999 32.1999 6.89999 31.6999 6.89999C31.1999 6.89999 30.7999 7.09999 30.3999 7.39999C30.0999 7.19999 29.5999 6.99999 29.0999 6.99999C28.5999 6.99999 27.9999 7.19999 27.6999 7.59999C26.8999 8.39999 26.8999 9.79999 27.7999 10.6ZM28.3999 8.19999C28.5999 7.99999 28.7999 7.89999 28.9999 7.89999C29.2999 7.89999 29.5999 7.99999 29.7999 8.19999C29.9999 8.39999 30.0999 8.49999 30.3999 8.49999C30.6999 8.49999 30.7999 8.39999 30.9999 8.19999C31.3999 7.79999 31.9999 7.69999 32.3999 8.09999C32.9999 8.69999 32.9999 9.49999 32.4999 9.99999L30.3999 12L28.3999 9.99999C27.8999 9.49999 27.8999 8.69999 28.3999 8.19999Z" fill="#555555"/>
<path d="M37.4998 21H37.3998C37.2998 21 37.1998 20.9 37.0998 20.9V20.3C38.1998 19.6 38.9998 18.3 38.9998 17.2V15.4C38.9998 13.4 37.3998 11.8 35.3998 11.8C33.2998 11.8 31.6998 13.4 31.6998 15.4V17.2C31.6998 18.3 32.4998 19.5 33.5998 20.3V20.9C33.4998 20.9 33.3998 21 33.1998 21H33.0998C32.9998 21 32.8998 21.1 32.6998 21.1C31.7998 21.3 30.9998 21.7 30.3998 22.4C30.2998 22.3 30.1998 22.2 30.0998 22.1L29.3998 17.1V15.7C29.3998 13.6 27.6998 11.9 25.5998 11.9C23.4998 11.9 21.7998 13.6 21.7998 15.7V17.1L21.0998 22.1C20.5998 22.6 20.3998 23.2 20.2998 24V26.7C20.2998 27 20.4998 27.2 20.7998 27.2H23.8998C24.1998 27.2 24.3998 27 24.3998 26.7C24.3998 26.4 24.1998 26.2 23.8998 26.2H23.0998V24.5C23.0998 24.5 23.0998 24.4 23.0998 24.3C23.0998 24.2 23.0998 24.2 23.0998 24.2C23.0998 24.2 23.1998 24.2 23.1998 24.1C23.6998 23.8 24.7998 23.9 25.1998 24.3C25.3998 24.5 25.6998 24.5 25.8998 24.3C26.2998 23.9 27.3998 23.8 27.8998 24.1C27.9998 24.1 27.9998 24.2 27.9998 24.2C27.9998 24.4 27.9998 25.6 27.9998 26.2H27.1998C26.8998 26.2 26.6998 26.4 26.6998 26.7C26.6998 27 26.8998 27.2 27.1998 27.2H39.9998C40.2998 27.2 40.4998 27 40.4998 26.7V24C40.5998 21.9 38.8998 21.4 37.4998 21ZM31.6998 24.5C31.6998 24.7 31.6998 24.9 31.8998 25L33.5998 26.1H30.8998V24C30.8998 23.1 31.3998 22.6 32.0998 22.3L31.6998 24.5ZM37.8998 24.4L36.4998 25.3L37.5998 23.1L37.8998 24.4ZM34.5998 22.3L33.9998 22.8L33.5998 21.9C33.6998 21.9 33.8998 21.8 33.9998 21.8L34.5998 22.3ZM34.8998 15.5C34.4998 15.3 33.9998 15 33.2998 15C33.0998 15 32.8998 15 32.6998 15C32.8998 13.7 33.9998 12.8 35.2998 12.8C36.6998 12.8 37.8998 13.9 37.8998 15.3C36.2998 16.1 35.5998 15.8 34.8998 15.5ZM32.6998 16.1C33.4998 15.9 33.8998 16.1 34.4998 16.4C34.9998 16.6 35.4998 16.9 36.1998 16.9C36.6998 16.9 37.2998 16.8 37.9998 16.5V17.2C37.9998 17.6 37.7998 18.2 37.3998 18.7C36.9998 19.2 36.4998 19.6 35.9998 19.8C35.4998 20 35.1998 20 34.7998 19.8C33.6998 19.4 32.7998 18.2 32.7998 17.2V16.1H32.6998ZM35.9998 22.4L36.5998 21.9C36.6998 21.9 36.7998 22 36.9998 22L36.5998 22.9L35.9998 22.4ZM36.0998 20.8V21L35.2998 21.7L34.4998 21V20.7C35.0998 20.9 35.4998 20.9 36.0998 20.8ZM36.0998 23.8L35.2998 25.6L34.4998 23.8L35.2998 23L36.0998 23.8ZM34.0998 25.3L32.6998 24.4L32.9998 23L34.0998 25.3ZM38.8998 24.5L38.3998 22.3C39.0998 22.6 39.5998 23 39.5998 24V26.2H36.9998L38.6998 25.1C38.8998 25 38.9998 24.8 38.8998 24.5ZM28.4998 23.3C27.7998 22.9 26.4998 22.9 25.5998 23.4C24.6998 22.9 23.3998 22.9 22.6998 23.3C22.0998 23.6 21.9998 23.9 22.0998 24.4V24.5V26.2H21.2998V24C21.2998 22.8 22.0998 22.4 23.6998 22C23.9998 21.9 24.2998 21.8 24.4998 21.8C24.6998 21.7 24.7998 21.5 24.7998 21.3V20.9C25.2998 21.1 25.7998 21.1 26.2998 20.9V21.3C26.2998 21.5 26.3998 21.7 26.5998 21.8C26.8998 21.9 27.1998 22 27.3998 22C28.9998 22.4 29.7998 22.8 29.7998 24V26.2H28.9998V24.5C28.9998 24.4 28.9998 24.4 28.9998 24.3C29.0998 23.8 28.9998 23.6 28.4998 23.3ZM22.0998 21.4L22.4998 18.8C22.7998 19.4 23.2998 20 23.7998 20.4V20.9C23.6998 20.9 23.5998 21 23.4998 21H23.3998C22.9998 21.1 22.5998 21.2 22.0998 21.4ZM23.1998 17.2C23.6998 16.9 24.0998 16.6 24.3998 16.2C25.2998 16.8 26.4998 17.2 27.8998 17.5V17.6C27.8998 18.5 26.9998 19.6 26.0998 19.9C25.6998 20.1 25.3998 20.1 24.9998 19.9C23.9998 19.5 23.1998 18.4 23.1998 17.6V17.2V17.2ZM27.7998 21H27.6998C27.5998 21 27.4998 20.9 27.3998 20.9V20.4C27.9998 20 28.3998 19.4 28.6998 18.8L29.0998 21.4C28.6998 21.2 28.1998 21.1 27.7998 21ZM28.4998 16.6C26.8998 16.3 25.5998 15.8 24.6998 15.2C24.5998 15.1 24.4998 15.1 24.3998 15.1C24.3998 15.1 24.3998 15.1 24.2998 15.1C24.1998 15.1 24.0998 15.2 23.9998 15.3C23.7998 15.6 23.4998 15.9 22.7998 16.4V15.8C22.7998 14.2 24.0998 12.9 25.5998 12.9C27.0998 12.9 28.3998 14.2 28.3998 15.8V16.6H28.4998Z" fill="#555555"/>
<path d="M25.5996 26.2C25.2996 26.2 25.0996 26.4 25.0996 26.7C25.0996 27 25.2996 27.2 25.5996 27.2C25.8996 27.2 26.0996 27 26.0996 26.7C26.0996 26.4 25.8996 26.2 25.5996 26.2Z" fill="#555555"/>
<path d="M26.9999 4.09999C26.9999 4.09999 26.9999 3.99999 26.9999 4.09999L26.7999 3.89999C26.7999 3.89999 26.6999 3.89999 26.6999 3.79999H26.5999C26.4999 3.79999 26.3999 3.79999 26.3999 3.79999H26.2999C26.2999 3.79999 26.1999 3.79999 26.1999 3.89999C26.1999 3.89999 26.0999 3.89999 26.0999 3.99999C26.0999 4.09999 26.0999 4.09999 25.9999 4.09999C25.9999 4.09999 25.9999 4.19999 25.8999 4.19999V4.29999V4.39999V4.49999V4.59999C25.8999 4.59999 25.8999 4.69999 25.9999 4.69999C25.9999 4.69999 25.9999 4.79999 26.0999 4.79999L26.1999 4.89999C26.1999 4.89999 26.2999 4.89999 26.2999 4.99999H26.3999H26.4999H26.5999H26.6999C26.6999 4.99999 26.7999 4.99999 26.7999 4.89999C26.7999 4.89999 26.8999 4.89999 26.8999 4.79999L26.9999 4.69999C26.9999 4.69999 26.9999 4.59999 27.0999 4.59999V4.49999V4.39999V4.29999C27.0999 4.29999 27.0999 4.29999 26.9999 4.09999C27.0999 4.09999 27.0999 4.19999 26.9999 4.09999Z" fill="#555555"/>
<path d="M40.6 3.89999C40.2 2.39999 38.9 1.29999 37.3 1.29999H19.1C16.3 1.29999 14 3.59999 14 6.39999V24.7C14 26.5 15.5 28 17.3 28.1C17.7 29.6 19 30.7 20.6 30.7H40.6C42.5 30.7 44 29.2 44 27.3V22.9V7.29999C43.9 5.39999 42.4 3.89999 40.6 3.89999ZM42.8 7.89999V21.5V22.9V26.3V26.5V27.2V27.4H42.7C42.6 28.5 41.6 29.3 40.5 29.3H20.6C19.7 29.3 18.9 28.7 18.5 27.9C18.4 27.8 18.4 27.6 18.4 27.4H18.3V27.2V26.8V24.1V21.8V21.6V7.89999V7.29999C18.3 6.09999 19.3 5.09999 20.5 5.09999H24.1C24.4 5.09999 24.7 4.79999 24.7 4.49999C24.7 4.19999 24.4 3.89999 24.1 3.89999H20.6C18.7 3.89999 17.2 5.39999 17.2 7.29999V24V26.9C16.1 26.8 15.2 25.9 15.2 24.7V6.39999C15.2 4.29999 16.9 2.49999 19.1 2.49999H37.4C38.3 2.49999 39.1 3.09999 39.5 3.89999H28.9C28.6 3.89999 28.3 4.19999 28.3 4.49999C28.3 4.79999 28.6 5.09999 28.9 5.09999H39.7H40.9C42 5.19999 42.9 6.09999 42.9 7.29999V7.89999H42.8Z" fill="#555555"/>
</g>
<rect x="37" y="1" width="22" height="10" rx="5" fill="#C6436A"/>
<path d="M44.8219 9H43.2828L40.7984 4.67969H40.7633C40.7737 4.85938 40.7828 5.04036 40.7906 5.22266C40.7984 5.40495 40.8062 5.58724 40.8141 5.76953C40.8219 5.94922 40.8297 6.13021 40.8375 6.3125V9H39.7555V3.28906H41.2828L43.7633 7.56641H43.7906C43.7854 7.38932 43.7789 7.21354 43.7711 7.03906C43.7633 6.86458 43.7555 6.6901 43.7477 6.51562C43.7424 6.34115 43.7372 6.16667 43.732 5.99219V3.28906H44.8219V9ZM49.1523 9H45.8633V3.28906H49.1523V4.28125H47.0742V5.53516H49.0078V6.52734H47.0742V8H49.1523V9ZM56.9633 3.28906L55.5102 9H54.1312L53.3578 6C53.3422 5.94271 53.3214 5.85547 53.2953 5.73828C53.2693 5.62109 53.2419 5.49349 53.2133 5.35547C53.1846 5.21484 53.1586 5.08333 53.1352 4.96094C53.1143 4.83594 53.1 4.73698 53.0922 4.66406C53.0844 4.73698 53.0687 4.83464 53.0453 4.95703C53.0245 5.07943 52.9997 5.20964 52.9711 5.34766C52.9451 5.48568 52.919 5.61458 52.893 5.73438C52.8669 5.85417 52.8461 5.94531 52.8305 6.00781L52.0609 9H50.6859L49.2289 3.28906H50.4203L51.1508 6.40625C51.1716 6.5 51.1951 6.61198 51.2211 6.74219C51.2497 6.8724 51.2771 7.00911 51.3031 7.15234C51.3318 7.29297 51.3565 7.42969 51.3773 7.5625C51.4008 7.69271 51.4177 7.80599 51.4281 7.90234C51.4411 7.80339 51.4581 7.6888 51.4789 7.55859C51.4997 7.42578 51.5219 7.29167 51.5453 7.15625C51.5714 7.01823 51.5974 6.89062 51.6234 6.77344C51.6495 6.65625 51.6729 6.5612 51.6937 6.48828L52.5258 3.28906H53.6703L54.5023 6.48828C54.5206 6.55859 54.5414 6.65365 54.5648 6.77344C54.5909 6.89062 54.6169 7.01823 54.643 7.15625C54.669 7.29427 54.6924 7.42969 54.7133 7.5625C54.7367 7.69271 54.7536 7.80599 54.7641 7.90234C54.7823 7.77214 54.807 7.61458 54.8383 7.42969C54.8721 7.24219 54.9073 7.05599 54.9437 6.87109C54.9828 6.6862 55.0167 6.53125 55.0453 6.40625L55.7719 3.28906H56.9633Z" fill="white"/>
<defs>
<clipPath id="clip0_2818_261">
<rect width="30" height="30" fill="white" transform="translate(14 1)"/>
</clipPath>
</defs>
</svg>
