<svg width="30" height="30" viewBox="0 0 30 30" fill="none" xmlns="http://www.w3.org/2000/svg">
<g clip-path="url(#clip0)">
<path d="M29.7 17.4C29.1 15.1 27.7 13 25.8 11.6C23.9 10.3 21.7 9.6 19.4 9.7C18.4 7.5 16.5 5.7 14.2 4.7C14 4.6 13.7 4.7 13.6 4.9C13.5 5.1 13.6 5.4 13.8 5.5C16 6.4 17.7 8.2 18.6 10.3C18.8 10.8 19 11.3 19.1 11.8C19.1 11.9 19.2 12.1 19.2 12.2C19.6 14.5 19.2 16.8 18 18.8C16.9 20.7 15.1 22.1 13 22.8C13 22.7 12.9 22.6 12.9 22.5C12.8 22.3 12.8 22.2 12.7 22C12.7 21.9 12.7 21.8 12.6 21.8C16.5 20.5 18.8 16.5 18 12.4C18 12.3 18 12.2 17.9 12.1C17.8 11.5 17.5 10.9 17.3 10.4C16.5 8.8 15.1 7.5 13.5 6.7C12.9 6.2 12 6 11.2 5.9L14.4 3C14.6 2.9 14.6 2.6 14.5 2.4L13 0.2C12.8 0.1 12.7 0 12.6 0H7.8C7.7 0 7.5 0.1 7.5 0.2L6 2.4C5.9 2.6 5.9 2.8 6.1 2.9L9.3 5.8C9 5.8 8.7 5.9 8.3 6C3.9 7.1 1.2 11.5 2.3 15.9C2.7 17.7 3.8 19.3 5.3 20.4C6.6 21.4 8.3 22 10 22.1V22.2C10 22.3 10 22.4 10.1 22.4C10.1 22.4 10.1 22.4 10.1 22.5C10.1 22.6 10.1 22.6 10.2 22.7C10.2 22.7 10.2 22.7 10.2 22.8C10.2 22.9 10.2 22.9 10.3 23C10.3 23.1 10.4 23.2 10.4 23.2C8.4 23.2 6.5 22.6 4.9 21.4C3.1 20.1 1.8 18.2 1.3 16.1C0.699996 14 0.899996 11.8 1.9 9.8C2.9 7.9 4.5 6.3 6.5 5.5C6.7 5.4 6.8 5.1 6.7 4.9C6.6 4.7 6.4 4.6 6.1 4.7C3.9 5.6 2.1 7.3 1.1 9.5C-4.17233e-06 11.7 -0.300004 14.1 0.299996 16.5C0.899996 18.8 2.3 20.9 4.2 22.3C5.9 23.6 8 24.2 10.1 24.2C10.2 24.2 10.4 24.2 10.5 24.2C12.2 27.8 15.8 30.1 19.7 30.1C20.5 30.1 21.3 30 22.1 29.8C27.7 28.4 31 22.9 29.7 17.4ZM18.9 19.3C20.1 17.3 20.6 14.9 20.3 12.6C21.7 12.7 23.2 13.2 24.3 14.1C25.6 15.1 26.5 16.5 26.9 18.1C27.8 22 25.5 25.9 21.6 26.9C19.7 27.4 17.8 27.1 16.1 26C15.1 25.4 14.2 24.5 13.6 23.5C15.8 22.8 17.6 21.3 18.9 19.3ZM12.6 20.8C12.4 19.2 12.7 17.5 13.5 16.1C14.4 14.6 15.7 13.5 17.3 12.9C17.9 16.4 15.9 19.7 12.6 20.8ZM8.1 0.9H12.4L13.3 2.2H7.3L8.1 0.9ZM7.5 3.1H12.9L10.2 5.6L7.5 3.1ZM9.7 21.2C8.3 21.1 6.9 20.6 5.7 19.7C4.4 18.7 3.5 17.3 3.1 15.7C2.2 11.8 4.5 7.9 8.4 6.9C10 6.5 11.7 6.7 13.2 7.4C14.5 8 15.6 9 16.4 10.2C14.1 11 12.2 12.6 11 14.7C9.9 16.7 9.4 19 9.7 21.2ZM22 28.8C21.3 29 20.5 29.1 19.8 29.1C16.1 29.1 12.7 26.9 11.3 23.4V23.3C11.3 23.3 11.3 23.2 11.2 23.2C11.2 23.1 11.2 23.1 11.1 23C11.1 22.9 11.1 22.9 11 22.8C11 22.7 11 22.7 10.9 22.6C10.9 22.5 10.9 22.5 10.8 22.4C10.8 22.4 10.8 22.4 10.8 22.3V22.2C10.8 22.1 10.8 22.1 10.8 22C10.8 21.9 10.8 21.9 10.8 21.8V21.7V21.6C10.8 21.6 10.8 21.6 10.8 21.5C10.4 19.3 10.7 17 11.9 15.1C13 13.1 14.8 11.7 17 11C17.1 11.3 17.3 11.7 17.4 12.1C15.5 12.7 14 14 13 15.7C12 17.5 11.6 19.5 12 21.5V21.6C12 21.7 12 21.7 12 21.8C12 21.9 12 21.9 12.1 22C12.1 22 12.1 22 12.1 22.1C12.1 22.2 12.1 22.2 12.1 22.3C12.1 22.4 12.1 22.4 12.2 22.5C12.2 22.6 12.2 22.6 12.3 22.7C12.9 24.4 14.1 25.9 15.7 26.8C17 27.6 18.4 28 19.9 28C20.5 28 21.2 27.9 21.8 27.8C26.2 26.7 28.9 22.3 27.8 17.9C27.4 16.1 26.3 14.5 24.9 13.4C23.5 12.4 21.9 11.7 20.2 11.7V11.6C20.1 11.3 20 10.9 19.9 10.6C21.9 10.6 23.8 11.2 25.4 12.4C27.2 13.7 28.4 15.6 29 17.7C30 22.6 27 27.6 22 28.8Z" fill="#555555"/>
</g>
<defs>
<clipPath id="clip0">
<rect width="30" height="30" fill="white"/>
</clipPath>
</defs>
</svg>
