<svg width="30" height="30" viewBox="0 0 30 30" fill="none" xmlns="http://www.w3.org/2000/svg">
<path d="M27.2871 16.1836C26.9297 16.1836 26.6367 16.4766 26.6367 16.834V26.8184C26.6367 27.5039 26.0801 28.0605 25.3945 28.0605H15.6445V20.7949C15.6445 20.4375 15.3516 20.1445 14.9941 20.1445C14.6367 20.1445 14.3438 20.4375 14.3438 20.7949V28.0605H10.8574V20.2559C10.8574 19.5703 11.4141 19.0137 12.0996 19.0137H17.8887C18.5742 19.0137 19.1309 19.5703 19.1309 20.2559V26.3379C19.1309 26.6953 19.4238 26.9883 19.7812 26.9883C20.1387 26.9883 20.4316 26.6953 20.4316 26.3379V20.2559C20.4316 18.8555 19.2949 17.7187 17.8945 17.7187H12.1055C10.7051 17.7187 9.56836 18.8555 9.56836 20.2559V28.0547H4.59961C3.91406 28.0547 3.35742 27.498 3.35742 26.8125V16.834C3.35742 16.4766 3.06445 16.1836 2.70703 16.1836C2.34961 16.1836 2.05664 16.4766 2.05664 16.834V26.8184C2.05664 28.2188 3.19336 29.3555 4.59375 29.3555H25.3887C26.7891 29.3555 27.9258 28.2188 27.9258 26.8184V16.834C27.9375 16.4766 27.6445 16.1836 27.2871 16.1836Z" fill="#555555"/>
<path d="M28.7051 10.6641C28.3477 10.6641 28.0547 10.957 28.0547 11.3144C28.0547 12.8437 26.8066 14.0918 25.2773 14.0918C23.748 14.0918 22.5 12.8437 22.5 11.3144C22.5 10.957 22.207 10.6641 21.8496 10.6641C21.4922 10.6641 21.1992 10.957 21.1992 11.3144C21.1992 12.8437 19.9512 14.0918 18.4219 14.0918C16.8926 14.0918 15.6445 12.8437 15.6445 11.3144C15.6445 10.957 15.3516 10.6641 14.9941 10.6641C14.6367 10.6641 14.3438 10.957 14.3438 11.3144C14.3438 12.8437 13.0957 14.0918 11.5664 14.0918C10.0371 14.0918 8.78906 12.8379 8.78906 11.291C8.78906 10.9336 8.49609 10.6406 8.13867 10.6406C7.78125 10.6406 7.48828 10.9336 7.48828 11.291C7.48828 12.8379 6.24023 14.0918 4.71094 14.0918C3.18164 14.0918 1.93359 12.8437 1.93359 11.3144V8.51953L4.79297 1.94531H25.207L27.7148 7.73437H4.36523C4.00781 7.73437 3.71484 8.02734 3.71484 8.38476C3.71484 8.74218 4.00781 9.03515 4.36523 9.03515C10.6582 9.03515 15.3691 9.03515 18.8086 9.04101C23.8418 9.04687 26.3672 9.04687 27.6387 9.03515C28.9746 9.02343 29.0039 9.00585 29.0977 8.90039C29.2324 8.79492 29.3145 8.64843 29.3379 8.47851C29.3379 8.47265 29.3379 8.47265 29.3379 8.46679C29.373 8.30859 29.373 8.30859 28.0137 5.18554C27.5742 4.17773 26.9883 2.83008 26.2148 1.04297C26.1094 0.808594 25.8809 0.650391 25.6172 0.650391H4.34766C4.08984 0.650391 3.85547 0.802734 3.75 1.04297L0.679688 8.13281L0.673828 8.14453C0.621094 8.25586 0.621094 8.25586 0.626953 9.65039C0.626953 10.0664 0.626953 10.6113 0.626953 11.3203C0.632812 13.5644 2.46094 15.3926 4.69922 15.3926C6.08789 15.3926 7.37695 14.6836 8.12695 13.5176C8.87695 14.6953 10.1367 15.3867 11.5547 15.3867C12.9668 15.3867 14.2266 14.6953 14.9824 13.5176C15.7324 14.6953 16.9922 15.3867 18.4102 15.3867C19.8223 15.3867 21.082 14.6953 21.8379 13.5176C22.5879 14.6777 23.8711 15.3867 25.2656 15.3867C27.5098 15.3867 29.3379 13.5586 29.3379 11.3144C29.3496 10.957 29.0625 10.6641 28.7051 10.6641Z" fill="#555555"/>
</svg>
