<svg width="30" height="30" viewBox="0 0 30 30" fill="none" xmlns="http://www.w3.org/2000/svg">
<path d="M8.30002 25.4C13 25.4 17.6 25.4 22.3 25.4C23.5 25.4 23.5 23.5 22.3 23.5C17.6 23.5 13 23.5 8.30002 23.5C7.10002 23.6 7.10002 25.4 8.30002 25.4Z" fill="#555555"/>
<path d="M22.3 25.5H8.30002C7.90002 25.5 7.40002 25.2 7.40002 24.6C7.40002 23.9 7.90002 23.7 8.30002 23.7H22.3C22.7 23.7 23.2 24 23.2 24.6C23.2 25.2 22.7 25.5 22.3 25.5ZM8.30002 23.6C7.70002 23.6 7.40002 24.1 7.40002 24.5C7.40002 24.9 7.70002 25.4 8.30002 25.4H22.3C22.9 25.4 23.2 24.9 23.2 24.5C23.2 24.1 22.9 23.6 22.3 23.6H8.30002Z" fill="#555555"/>
<path d="M8.19999 19.7C12.9 19.7 17.5 19.7 22.2 19.7C23.4 19.7 23.4 17.8 22.2 17.8C17.5 17.8 12.9 17.8 8.19999 17.8C6.99999 17.9 6.99999 19.7 8.19999 19.7Z" fill="#555555"/>
<path d="M22.2 19.8H8.19999C7.79999 19.8 7.29999 19.5 7.29999 18.9C7.29999 18.2 7.79999 18 8.19999 18H22.2C22.6 18 23.1 18.3 23.1 18.9C23.1 19.5 22.6 19.8 22.2 19.8ZM8.19999 17.9C7.59999 17.9 7.29999 18.4 7.29999 18.8C7.29999 19.2 7.59999 19.7 8.19999 19.7H22.2C22.8 19.7 23.1 19.2 23.1 18.8C23.1 18.4 22.8 17.9 22.2 17.9H8.19999Z" fill="#555555"/>
<path d="M23 6.89999C23 6.89999 22.9 6.89999 23 6.89999C22.8 6.89999 22.5 7.09999 22 7.49999C21.5 7.89999 21 8.29999 20.6 8.89999C20 9.59999 19.4 10.4 18.8 11.3C18.3 12.1 17.7 13.1 17.2 14.2C17.3 13.5 17.8 12 18.7 9.89999C19 9.29999 19.2 8.79999 19.3 8.39999C19.6 7.69999 19.9 6.99999 20.2 6.29999C20.7 5.29999 20.7 5.19999 20.7 5.19999C20.7 5.19999 20.7 5.09999 20.6 5.09999L20.5 4.99999C20.4 4.99999 20.3 5.09999 19.6 5.99999C19 6.49999 18.6 6.99999 18.2 7.49999C16.9 8.99999 15.6 10.4 14.3 11.4C13.1 12.4 11.9 13.2 10.8 13.9C12.6 12.5 13.9 11.2 14.7 10.3C15.5 9.29999 15.9 8.29999 15.9 7.39999C15.9 6.69999 15.7 6.09999 15.2 5.59999C14.7 5.09999 14.1 4.89999 13.4 4.89999C12.8 4.89999 12.2 5.09999 11.5 5.39999C10.8 5.69999 10.1 6.19999 9.5 6.79999C8.8 7.29999 8.4 7.79999 8 8.39999C7.7 8.89999 7.5 9.49999 7.5 9.89999C7.5 10.4 7.7 10.8 7.9 11C8.2 11.3 8.6 11.4 9.1 11.4C9.9 11.4 10.7 11 11.3 10.4C11.9 9.69999 12.3 8.89999 12.3 7.89999C12.3 7.39999 12.3 6.99999 12.2 6.69999C12.1 6.39999 12 6.19999 11.9 6.19999C11.9 6.19999 11.8 6.19999 11.8 6.29999C11.8 6.29999 11.8 6.39999 11.8 6.49999C11.8 6.49999 11.8 6.59999 11.8 6.69999C11.8 6.79999 11.8 6.89999 11.8 6.89999C11.8 7.19999 11.8 7.49999 11.7 7.89999C11.6 8.19999 11.5 8.49999 11.3 8.89999C10.9 9.59999 10.5 10.1 10 10.5C9.5 10.9 9.1 11.1 8.8 11.1C8.5 11.1 8.3 11 8.1 10.8C7.9 10.6 7.8 10.3 7.8 9.99999C7.8 9.59999 7.9 9.19999 8.2 8.79999C8.5 8.39999 8.8 7.89999 9.3 7.39999C9.9 6.79999 10.6 6.29999 11.3 5.89999C12 5.49999 12.6 5.39999 13.1 5.39999C13.5 5.39999 13.8 5.49999 14 5.69999C14.2 5.89999 14.3 6.19999 14.3 6.59999C14.3 7.39999 14 8.29999 13.5 9.29999C12.9 10.3 12.1 11.6 10.8 13C10.5 13.4 10.1 13.8 9.7 14.2C9.2 14.8 9.1 14.9 9.1 14.9C9.1 15 9.1 15 9.2 15C9.2 15 9.3 15 9.4 15C9.5 15 10 14.8 10.8 14.2C11.6 13.7 12.5 13.1 13.4 12.4C15 11.1 16.7 9.49999 18.5 7.49999C18.8 7.09999 19.1 6.79999 19.3 6.59999C19.1 6.79999 18.9 7.09999 18.7 7.39999C16.8 9.89999 15.8 11.8 15.8 13.1C15.8 13.6 15.9 14 16.1 14.4C16.3 14.8 16.5 14.9 16.7 14.9C17 14.9 17.3 14.4 17.9 13.4C18.4 12.4 18.9 11.5 19.3 10.8C20.2 9.39999 21.3 8.19999 22.6 7.29999C23 7.09999 23 6.99999 23 6.89999Z" fill="#555555"/>
<path d="M9.39999 15.1C9.29999 15.1 9.19999 15.1 9.09999 15C9.09999 15 8.99999 14.9 8.99999 14.8C8.99999 14.7 8.99999 14.6 9.59999 14C9.99999 13.6 10.4 13.2 10.7 12.8C11.9 11.4 12.8 10.2 13.3 9.19999C13.8 8.19999 14.1 7.29999 14.1 6.49999C14.1 6.09999 14 5.79999 13.8 5.59999C13.6 5.39999 13.3 5.29999 12.9 5.29999C12.4 5.29999 11.8 5.49999 11.2 5.79999C10.5 6.19999 9.89999 6.69999 9.19999 7.29999C8.69999 7.79999 8.29999 8.29999 8.09999 8.69999C8.09999 9.19999 7.89999 9.59999 7.89999 9.89999C7.89999 10.2 7.99999 10.5 8.19999 10.7C8.39999 10.9 8.59999 11 8.79999 11C9.09999 11 9.49999 10.8 9.89999 10.4C10.4 9.99999 10.8 9.49999 11.2 8.79999C11.4 8.49999 11.5 8.19999 11.6 7.79999C11.7 7.49999 11.7 7.19999 11.7 6.89999C11.7 6.79999 11.7 6.79999 11.7 6.69999C11.7 6.59999 11.7 6.49999 11.7 6.49999C11.7 6.39999 11.7 6.39999 11.7 6.29999C11.7 6.19999 11.8 6.19999 11.9 6.19999C12.2 6.19999 12.3 6.49999 12.3 6.79999C12.4 7.09999 12.4 7.49999 12.4 7.99999C12.4 8.99999 12.1 9.79999 11.4 10.5C10.7 11.2 9.99999 11.6 9.09999 11.6C8.59999 11.6 8.09999 11.4 7.79999 11.2C7.49999 10.9 7.29999 10.5 7.29999 9.99999C7.29999 9.49999 7.49999 8.99999 7.79999 8.39999C8.09999 7.79999 8.59999 7.29999 9.19999 6.69999C9.79999 6.09999 10.5 5.59999 11.2 5.29999C11.9 4.99999 12.6 4.79999 13.2 4.79999C14 4.79999 14.6 4.99999 15.1 5.49999C15.7 5.99999 16 6.59999 16 7.39999C16 8.29999 15.6 9.29999 14.8 10.3C14.2 11.1 13.2 12 11.9 13.2C12.7 12.7 13.5 12.1 14.3 11.4C15.5 10.3 16.9 8.99999 18.2 7.49999C18.6 7.09999 19 6.59999 19.5 5.89999C20.3 4.89999 20.4 4.89999 20.5 4.89999C20.6 4.89999 20.6 4.89999 20.7 4.99999C20.7 4.99999 20.7 4.99999 20.7 5.09999C20.7 5.09999 20.7 5.09999 20.2 6.19999C19.9 6.89999 19.6 7.59999 19.3 8.29999C19.2 8.69999 18.9 9.19999 18.7 9.79999C18.1 11.3 17.6 12.4 17.4 13.2C17.8 12.4 18.2 11.7 18.6 11.1C19.2 10.2 19.8 9.39999 20.4 8.69999C20.9 8.19999 21.4 7.69999 21.9 7.29999C22.6 6.79999 22.8 6.69999 22.9 6.69999H23L23.1 6.79999C23.1 6.89999 23 6.99999 22.7 7.19999C21.4 8.09999 20.3 9.29999 19.4 10.7C19 11.4 18.5 12.2 18 13.2C17.3 14.6 17 14.8 16.8 14.8C16.5 14.8 16.3 14.6 16.1 14.2C15.9 13.8 15.8 13.4 15.8 12.9C15.8 11.8 16.5 10.2 18 8.19999C16.5 9.89999 15 11.3 13.6 12.4C12.7 13.1 11.9 13.7 11 14.2C9.79999 15 9.59999 15.1 9.39999 15.1ZM13.1 5.09999C13.5 5.09999 13.9 5.19999 14.1 5.49999C14.3 5.69999 14.5 6.09999 14.5 6.49999C14.5 7.29999 14.2 8.29999 13.7 9.29999C13.1 10.3 12.2 11.6 11 13C10.7 13.4 10.3 13.8 9.89999 14.2C9.39999 14.7 9.29999 14.9 9.29999 14.9V15C9.29999 15 9.29999 15 9.39999 15C9.39999 15 9.69999 14.9 10.8 14.3C11.6 13.8 12.5 13.2 13.3 12.5C14.9 11.3 16.6 9.59999 18.4 7.59999C18.7 7.19999 19 6.89999 19.2 6.69999L19.3 6.79999C19.1 6.99999 18.9 7.29999 18.7 7.59999C16.8 10.1 15.9 12 15.9 13.2C15.9 13.7 16 14.1 16.2 14.4C16.4 14.7 16.5 14.9 16.7 14.9C16.7 14.9 16.8 14.9 16.9 14.8L17 14.2C17.1 13.5 17.6 12 18.5 9.89999C18.8 9.29999 19 8.79999 19.1 8.39999C19.4 7.69999 19.7 6.99999 20 6.29999C20.4 5.49999 20.4 5.29999 20.5 5.29999C20.5 5.29999 20.5 5.29999 20.4 5.29999C20.4 5.29999 20.2 5.39999 19.6 6.19999C19.1 6.79999 18.7 7.39999 18.3 7.79999C17 9.29999 15.7 10.7 14.4 11.8C13.2 12.8 12 13.7 10.9 14.3L10.8 14.1C12.6 12.7 13.9 11.4 14.7 10.5C15.5 9.49999 15.9 8.59999 15.9 7.69999C15.9 6.99999 15.7 6.39999 15.2 5.99999C14.8 5.59999 14.2 5.29999 13.4 5.29999C12.8 5.29999 12.2 5.49999 11.5 5.79999C10.8 6.09999 10.1 6.59999 9.49999 7.19999C8.89999 7.29999 8.39999 7.89999 8.09999 8.39999C7.79999 8.99999 7.59999 9.49999 7.59999 9.89999C7.59999 10.3 7.69999 10.7 7.99999 11C8.29999 11.3 8.69999 11.4 9.09999 11.4C9.89999 11.4 10.6 11.1 11.2 10.4C11.8 9.69999 12.1 8.89999 12.1 7.99999C12.1 7.49999 12.1 7.19999 12 6.89999C11.9 6.49999 11.8 6.49999 11.8 6.49999C11.8 6.49999 11.8 6.49999 11.8 6.59999C11.8 6.59999 11.8 6.69999 11.8 6.79999C11.8 6.89999 11.8 6.99999 11.8 6.99999C11.8 7.29999 11.8 7.69999 11.7 7.99999C11.6 8.29999 11.5 8.69999 11.3 8.99999C10.9 9.69999 10.5 10.2 9.99999 10.6C9.49999 11 9.09999 11.2 8.79999 11.2C8.49999 11.2 8.19999 11.1 7.99999 10.8C7.79999 10.6 7.69999 10.3 7.69999 9.89999C7.69999 9.49999 7.79999 9.09999 8.09999 8.59999C8.39999 8.09999 8.79999 7.69999 9.29999 7.19999C9.89999 6.59999 10.6 6.09999 11.3 5.69999C12 5.29999 12.6 5.09999 13.1 5.09999ZM22.9 6.99999C22.8 6.99999 22.6 6.99999 22 7.49999C21.5 7.89999 21 8.29999 20.6 8.89999C20 9.59999 19.4 10.4 18.8 11.3C18.3 12.1 17.7 13.1 17.2 14.2L16.9 14.8C17.1 14.6 17.4 14.3 17.8 13.4C18.3 12.4 18.8 11.5 19.2 10.8C20.1 9.39999 21.2 8.19999 22.5 7.29999C22.8 7.09999 22.9 6.99999 22.9 6.99999Z" fill="#555555"/>
<path d="M21.4 30H8.6C5.8 30 3.5 27.7 3.5 24.9V5.1C3.5 2.3 5.8 0 8.6 0H21.4C24.2 0 26.5 2.3 26.5 5.1V24.9C26.5 27.7 24.2 30 21.4 30ZM8.6 1.1C6.4 1.1 4.6 2.9 4.6 5.1V24.9C4.6 27.1 6.4 28.9 8.6 28.9H21.4C23.6 28.9 25.4 27.1 25.4 24.9V5.1C25.4 2.9 23.6 1.1 21.4 1.1H8.6Z" fill="#555555"/>
</svg>
