<svg width="398" height="83" viewBox="0 0 398 83" fill="none" xmlns="http://www.w3.org/2000/svg">
<path d="M83.9561 13.5345C85.3307 12.4771 86.0708 11.8427 86.0708 11.6312C86.0708 11.5255 86.0708 11.4197 85.9651 11.4197C85.8594 11.314 85.7536 11.314 85.6479 11.314C84.9077 11.314 83.1102 12.3714 80.361 14.4861C77.6118 16.6009 74.8626 19.1386 72.3249 22.0993C68.7298 26.1173 65.4519 30.4526 62.3855 35.3165C59.3191 40.1805 56.2527 45.6789 53.3978 51.9174C53.8207 48.1109 56.6756 39.8633 61.9626 27.2804C63.4429 23.7911 64.606 21.0419 65.3462 19.0329C67.038 15.0148 68.6241 10.9968 70.4216 7.1902C72.1134 3.38362 72.9593 1.3746 72.9593 1.26886C72.9593 1.05738 72.8536 0.845906 72.6421 0.634429C72.4306 0.422953 72.2191 0.317215 71.9019 0.317215C71.479 0.317215 69.7872 2.11476 66.9322 5.70986C64.1831 9.09348 61.7511 12.0541 59.6363 14.4861C52.2346 23.0509 45.0444 30.4526 37.96 36.4797C30.9813 42.5067 24.1083 47.265 17.4468 50.6486C27.9149 42.401 35.4223 35.4223 39.8633 29.8182C44.1985 24.214 46.419 18.9271 46.419 13.9574C46.419 9.83365 45.1502 6.55577 42.5067 3.91231C39.8633 1.3746 36.5854 0 32.3559 0C29.1837 0 25.5886 0.951644 21.6763 2.74919C17.764 4.65248 14.0632 7.1902 10.5738 10.3623C7.19019 13.4287 4.54674 16.6009 2.74919 19.6673C0.951643 22.7337 0 25.5886 0 28.1263C0 30.7698 0.845905 32.7788 2.43198 34.3649C4.01805 35.951 6.23855 36.6911 9.09348 36.6911C13.746 36.6911 17.764 34.7878 21.3591 30.8755C24.9542 27.069 26.7517 22.4165 26.7517 17.1296C26.7517 14.5919 26.5403 12.3714 26.0116 10.6796C25.5886 8.98774 24.9542 8.0361 24.3198 8.0361C24.1083 8.0361 24.0026 8.14184 23.8968 8.35331C23.7911 8.56479 23.7911 8.77627 23.7911 9.09348C23.7911 9.19922 23.7911 9.62217 23.8968 10.0451C24.0026 10.5738 24.0026 10.9968 24.0026 11.314C24.0026 13.1115 23.7911 14.9091 23.2624 16.7066C22.7337 18.5042 21.8878 20.3017 20.8304 22.0993C18.7157 25.8001 16.2837 28.7608 13.746 31.087C11.1025 33.4133 8.98774 34.5764 7.19019 34.5764C5.60412 34.5764 4.22953 33.9419 3.27788 32.7788C2.2205 31.51 1.69181 30.0296 1.69181 28.1263C1.69181 26.0116 2.43198 23.7911 3.91231 21.2534C5.39264 18.7157 7.50741 16.0722 10.2566 13.323C13.746 9.83365 17.4468 7.08446 21.2534 4.96969C25.0599 2.96067 28.3378 1.90329 31.087 1.90329C33.3075 1.90329 34.9993 2.53772 36.2682 3.70084C37.537 4.96969 38.0657 6.6615 38.0657 8.882C38.0657 13.4287 36.4797 18.5042 33.4133 24.214C30.3468 29.9239 25.3772 36.6911 18.6099 44.6215C16.8124 46.7363 14.8033 48.851 12.5828 51.1773C10.3623 53.5035 9.30496 54.7724 9.30496 55.1953C9.30496 55.5125 9.41069 55.8297 9.62217 55.9355C9.83365 56.0412 10.1509 56.147 10.6796 56.147C11.4197 56.147 14.0632 54.7724 18.7157 51.9174C23.3681 49.1682 28.1263 45.8904 32.8846 42.0838C41.8723 35.1051 51.283 25.9058 61.1166 14.4861C63.7601 11.4197 65.5576 9.4107 66.7208 8.24758C65.7691 9.62217 64.2888 11.5255 62.3855 13.9574C51.8117 28.1263 46.419 38.5944 46.419 45.4674C46.419 48.2166 46.9477 50.5428 47.8994 52.4461C48.851 54.4551 50.0141 55.4068 51.283 55.4068C52.6576 55.4068 54.8781 52.5519 57.6273 46.842C60.4822 41.1321 63.1257 36.3739 65.6634 32.5674C70.7388 25.0599 76.8716 18.6099 83.9561 13.5345Z" fill="white"/>
<path d="M210.419 22.9452C211.688 22.9452 212.745 22.5222 213.697 21.5706C214.648 20.6189 215.071 19.5616 215.071 18.2927C215.071 17.2353 214.754 16.3894 214.12 15.755C213.485 15.1206 212.639 14.8033 211.582 14.8033C210.313 14.8033 209.256 15.2263 208.198 16.1779C207.247 17.1296 206.718 18.187 206.718 19.3501C206.718 20.5132 207.035 21.3591 207.67 21.9935C208.304 22.628 209.256 22.9452 210.419 22.9452Z" fill="white"/>
<path d="M328.528 4.44102L315.1 28.8665C314.888 29.2895 314.359 30.0296 313.619 30.9813C312.879 31.9329 312.033 32.8846 311.082 33.8362L308.861 36.1625C308.332 36.6912 307.698 37.3256 306.958 38.0658C306.006 39.0174 305.477 39.6518 305.16 40.0748C303.468 41.6608 302.094 43.0354 300.931 43.9871C297.864 46.7363 295.115 48.851 292.577 50.5429C290.04 52.2347 287.925 53.3978 286.127 54.0322L300.296 28.3378L291.52 29.078L289.088 33.3075C288.771 31.7215 288.031 30.4526 286.973 29.6067C285.81 28.7608 284.33 28.3378 282.426 28.3378C280.417 28.3378 278.303 28.8665 275.976 29.9239C273.65 30.9813 271.218 32.4616 268.575 34.4706C266.883 35.8452 265.403 37.2198 264.24 38.5944C262.336 40.2863 260.221 42.401 257.684 44.7273L255.992 46.4191C253.454 48.851 251.339 50.6486 249.542 52.0232C247.744 53.292 246.476 54.0322 245.735 54.0322C245.418 54.0322 245.207 53.9265 244.995 53.8207C244.784 53.715 244.784 53.5035 244.784 53.292C244.784 52.7633 245.418 51.706 246.581 50.2256C247.11 49.5912 247.533 49.0625 247.85 48.6396C250.494 45.2559 252.291 42.6125 253.137 40.8149C253.983 39.0174 254.406 37.2198 254.406 35.6338C254.406 33.4133 253.877 31.6157 252.926 30.3469C251.974 29.078 250.599 28.4436 248.908 28.4436C246.898 28.4436 244.467 29.501 241.612 31.7215C238.757 33.942 235.373 37.2198 231.461 41.7666C231.989 40.392 232.412 39.1231 232.73 37.8543C233.047 36.5854 233.153 35.3166 233.153 34.1534C233.153 32.4616 232.835 31.087 232.095 30.0296C231.461 28.9723 230.509 28.4436 229.452 28.4436C228.394 28.4436 227.02 29.078 225.328 30.3469C223.636 31.6157 221.521 33.6247 218.878 36.3739C218.243 37.0084 217.82 37.5371 217.503 37.96C217.398 38.0657 217.398 38.1715 217.292 38.2772C215.494 39.969 213.38 42.1895 210.736 44.7273C207.67 47.8994 205.132 50.2256 203.017 51.9174C201.008 53.5035 199.528 54.3494 198.682 54.3494C198.47 54.3494 198.259 54.2437 198.153 54.1379C198.047 54.0322 197.942 53.8207 197.942 53.6093C197.942 53.1863 198.259 52.3404 198.999 50.8601C199.739 49.3797 200.797 47.3707 202.066 44.9387L211.053 28.4436L201.748 29.078C200.797 30.3469 199.422 31.7215 197.836 33.4133C197.625 33.6247 197.413 33.8362 197.307 33.942L196.25 34.9993C193.712 37.2198 190.223 40.4977 185.782 44.9387L182.61 48.0051C180.178 50.4371 178.169 52.2347 176.688 53.1863C175.208 54.2437 173.939 54.6666 172.882 54.6666C172.459 54.6666 172.142 54.6666 171.93 54.5609C171.719 54.4552 171.613 54.3494 171.613 54.1379C171.613 53.6093 172.036 52.3404 172.882 50.4371C173.728 48.5338 174.891 46.3133 176.265 43.7756L198.576 3.70085L189.694 4.65249L173.833 33.4133C173.516 31.8272 172.776 30.5583 171.613 29.7124C170.45 28.8665 168.969 28.4436 167.066 28.4436C165.057 28.4436 162.942 28.9723 160.51 30.0296C159.347 30.5583 158.184 31.1928 156.915 31.9329C155.964 32.2501 154.378 33.4133 152.157 35.3166C151.734 35.6338 151.311 36.0567 150.994 36.3739C148.668 38.4887 145.707 41.3436 142.112 44.833L138.94 47.8994C136.508 50.3314 134.499 52.1289 133.019 53.0806C131.538 54.1379 130.269 54.5609 129.212 54.5609C128.789 54.5609 128.472 54.5609 128.26 54.4552C128.049 54.3494 127.943 54.2437 127.943 54.0322C127.943 53.5035 128.366 52.2347 129.212 50.3314C130.058 48.4281 131.221 46.2076 132.596 43.6699L154.906 3.59511L146.024 4.54675L130.164 33.3075C129.846 31.7215 129.106 30.4526 127.943 29.6067C126.78 28.7608 125.3 28.3378 123.396 28.3378C121.387 28.3378 119.273 28.8665 116.841 29.9239C115.254 30.6641 113.563 31.6157 111.765 32.7788C111.765 32.7788 111.659 32.7788 111.659 32.8846C110.919 33.4133 110.073 33.942 109.227 34.5764C108.382 35.2108 107.641 35.951 106.901 36.5854C106.055 37.3256 105.209 38.0657 104.152 39.0174C101.614 41.3436 99.6052 43.1412 98.0192 44.41C93.3667 48.4281 89.7716 51.1773 87.2339 52.5519C84.6962 53.9265 82.2642 54.5609 79.9379 54.5609C78.9863 54.5609 78.3519 54.4552 77.9289 54.1379C77.506 53.8207 77.2945 53.3978 77.2945 52.8691C77.2945 52.3404 77.4002 51.706 77.7174 50.7543C77.9289 49.8027 78.4576 48.4281 79.092 46.5248C84.4847 45.5732 88.9257 43.9871 92.3093 41.5551C95.6929 39.2289 97.3847 36.5854 97.3847 33.8362C97.3847 32.1444 96.856 30.7698 95.9044 29.7124C94.847 28.7608 93.4724 28.2321 91.6749 28.2321C89.7716 28.2321 87.5511 28.7608 85.1191 29.7124C82.6871 30.6641 80.3609 32.1444 78.0347 33.942C75.2855 36.0567 73.1707 38.1715 71.9018 40.392C70.5273 42.6125 69.8928 44.833 69.8928 47.1592C69.8928 49.9084 70.8445 52.1289 72.642 53.8207C74.4396 55.5125 76.8715 56.3584 79.8322 56.3584C82.6871 56.3584 85.5421 55.5125 88.397 53.9265C91.3577 52.3404 95.5872 48.9568 101.297 43.7756C101.614 43.4584 102.037 43.0354 102.46 42.6125C101.72 44.41 101.297 46.3133 101.297 48.3223C101.297 50.7543 102.037 52.6576 103.412 54.0322C104.786 55.5125 106.69 56.2527 108.91 56.2527C111.025 56.2527 113.14 55.5125 115.36 53.9265C117.581 52.3404 120.013 49.8027 122.868 46.2076C122.445 47.0535 122.127 47.8994 122.022 48.6396C121.81 49.4855 121.705 50.3314 121.705 51.283C121.705 52.8691 122.233 54.1379 123.291 55.0896C124.348 56.0412 125.723 56.4642 127.626 56.4642C131.009 56.4642 136.191 52.9748 143.064 45.8904L144.227 44.7273C144.755 44.1986 145.39 43.5641 146.236 42.7182C145.496 44.5158 145.073 46.4191 145.073 48.5338C145.073 50.9658 145.813 52.8691 147.187 54.2437C148.562 55.724 150.465 56.4642 152.686 56.4642C154.801 56.4642 156.915 55.724 159.136 54.1379C161.356 52.5519 163.788 50.0142 166.643 46.4191C166.22 47.265 165.903 48.1109 165.797 48.851C165.586 49.6969 165.48 50.5428 165.48 51.4945C165.48 53.0806 166.009 54.3494 167.066 55.3011C168.124 56.2527 169.498 56.6757 171.401 56.6757C174.785 56.6757 179.966 53.1863 186.839 46.1018L188.002 44.9387C188.637 44.3043 189.483 43.4584 190.646 42.1895C191.069 41.7666 191.386 41.4494 191.809 41.0264C192.02 41.0264 192.866 40.392 194.029 39.1231C194.664 38.4887 195.193 37.96 195.615 37.6428L198.259 35.1051C197.942 35.6338 197.413 36.4797 196.779 37.5371C192.972 44.0928 191.069 48.5338 191.069 50.8601C191.069 52.6576 191.492 54.0322 192.443 55.0896C193.395 56.0412 194.664 56.5699 196.356 56.5699C198.259 56.5699 200.268 55.8298 202.488 54.3494C204.709 52.8691 207.775 50.1199 211.688 46.1018C212.639 45.1502 213.908 43.7756 215.6 41.9781C218.666 38.8059 221.204 36.3739 223.213 34.5764C223.425 34.4706 223.636 34.3649 223.848 34.3649C224.059 34.3649 224.165 34.4706 224.271 34.5764C224.376 34.6821 224.376 34.8936 224.376 35.2108C224.376 35.7395 223.848 36.9026 222.896 38.7002C221.839 40.392 220.252 42.9297 218.032 46.2076L211.053 56.4642L222.79 55.8298C228.183 48.0051 233.153 41.7666 237.594 37.2198C242.035 32.6731 245.418 30.3469 247.639 30.3469C247.956 30.3469 248.167 30.4526 248.273 30.5583C248.379 30.6641 248.485 30.8756 248.485 31.1928C248.485 31.6157 247.533 32.7788 245.735 34.8936C244.678 36.1625 243.832 37.1141 243.198 37.96C241.083 40.6035 239.603 42.7182 238.862 44.41C238.122 45.9961 237.805 47.5822 237.805 49.1683C237.805 51.283 238.334 53.0806 239.391 54.3494C240.448 55.724 241.823 56.3584 243.515 56.3584C246.581 56.3584 251.657 52.7634 258.741 45.5732L259.27 45.0445L260.433 43.8813C260.644 43.6699 260.75 43.5641 260.962 43.3527C260.327 44.9387 260.01 46.6305 260.01 48.3223C260.01 50.7543 260.75 52.6576 262.125 54.1379C263.605 55.6183 265.403 56.3584 267.729 56.3584C269.949 56.3584 272.064 55.6183 274.285 54.0322C276.399 52.4461 278.937 49.9084 281.686 46.2076L275.554 57.0986C266.989 59.9535 260.539 62.9142 256.309 65.9806C252.08 69.1528 249.965 72.4307 249.965 76.0257C249.965 77.929 250.705 79.5151 252.291 80.6782C253.877 81.9471 255.781 82.5815 258.212 82.5815C262.442 82.5815 266.672 80.4668 270.901 76.2372C275.131 72.0077 279.572 65.3462 284.33 56.147C290.357 54.1379 296.701 49.9084 303.257 43.4584C304.314 42.401 305.266 41.5551 306.112 40.6035C306.746 40.0748 307.698 39.2289 309.073 37.8543C309.178 37.7485 309.284 37.6428 309.495 37.4313C310.447 36.5854 311.187 35.8452 312.033 35.2108L300.613 56.3584L309.284 55.724L336.564 3.48937L328.528 4.44102ZM86.1765 34.5764C88.6085 31.7215 90.6175 30.2411 92.0978 30.2411C92.6265 30.2411 93.0495 30.4526 93.4724 30.9813C93.8954 31.51 94.1069 32.0387 94.1069 32.7788C94.1069 35.2108 92.7323 37.7485 89.8773 40.392C87.0224 43.0354 83.7445 44.6215 80.1494 45.1502C81.6298 41.0264 83.6388 37.4313 86.1765 34.5764ZM126.674 39.3346C125.194 41.7666 123.079 44.5158 120.541 47.5822C118.532 49.9084 116.523 51.8117 114.726 53.1863C112.823 54.5609 111.236 55.1953 109.968 55.1953C109.333 55.1953 108.91 55.0896 108.593 54.7724C108.276 54.4552 108.17 54.0322 108.17 53.3978C108.17 52.1289 108.699 50.4371 109.862 48.3223C111.025 46.2076 112.823 43.4584 115.254 40.0748C117.581 36.9026 119.59 34.4706 121.282 32.8846C122.973 31.2985 124.348 30.4526 125.511 30.4526C126.463 30.4526 127.309 30.7698 127.943 31.4042C128.577 32.0387 128.895 32.8846 128.895 33.942C128.895 34.9993 128.155 36.7969 126.674 39.3346ZM170.344 39.3346C168.864 41.7666 166.749 44.5158 164.211 47.5822C162.202 49.9084 160.193 51.8117 158.396 53.1863C156.492 54.5609 154.906 55.1953 153.637 55.1953C153.003 55.1953 152.58 55.0896 152.263 54.7724C151.946 54.4552 151.84 54.0322 151.84 53.3978C151.84 52.1289 152.369 50.4371 153.532 48.3223C154.695 46.2076 156.492 43.4584 158.924 40.0748C161.251 36.9026 163.26 34.4706 164.951 32.8846C166.643 31.2985 168.018 30.4526 169.181 30.4526C170.133 30.4526 170.979 30.7698 171.613 31.4042C172.247 32.0387 172.565 32.8846 172.565 33.942C172.67 34.9993 171.824 36.7969 170.344 39.3346ZM265.297 75.92C262.653 79.1979 260.327 80.784 258.001 80.784C256.626 80.784 255.463 80.4668 254.723 79.7266C253.983 78.9864 253.56 77.929 253.56 76.6602C253.56 73.6995 255.569 70.5274 259.587 67.1437C263.605 63.7601 268.892 61.0109 275.236 58.7904C271.218 67.038 267.835 72.7479 265.297 75.92ZM279.149 47.5822C277.14 49.9084 275.236 51.8117 273.333 53.0806C271.43 54.4552 269.844 55.0896 268.575 55.0896C267.94 55.0896 267.517 54.8781 267.2 54.5609C266.883 54.2437 266.672 53.715 266.672 53.0806C266.672 52.0232 267.306 50.3314 268.575 48.1109C269.844 45.7846 271.641 43.1412 273.862 39.969C276.188 36.6912 278.303 34.2592 279.889 32.6731C281.581 31.087 282.955 30.3469 284.013 30.3469C284.964 30.3469 285.81 30.6641 286.445 31.2985C287.079 31.9329 287.396 32.7788 287.396 33.8362C287.396 34.9993 286.656 36.7969 285.176 39.3346C283.695 41.8723 281.686 44.6215 279.149 47.5822Z" fill="white"/>
<path d="M397.681 32.0387C397.258 31.9329 397.047 31.9329 396.941 31.9329C395.567 31.9329 391.337 35.4223 384.147 42.2953C381.715 44.6215 379.706 46.5248 378.331 47.8994C376.005 50.1199 374.208 51.6002 372.939 52.5518C371.67 53.5035 370.612 53.9264 369.872 53.9264C369.661 53.9264 369.449 53.8207 369.238 53.715C369.132 53.6092 369.026 53.5035 369.026 53.292C369.026 52.8691 369.238 52.2346 369.661 51.3887C370.084 50.5428 370.718 49.1682 371.67 47.4764L382.138 28.5493L371.458 29.1837C366.7 36.5854 362.365 42.5067 358.664 46.9477C354.963 51.3887 352.425 53.6092 351.157 53.6092C350.945 53.6092 350.628 53.5035 350.416 53.292C350.205 53.0805 350.099 52.8691 350.099 52.6576C350.099 52.4461 350.416 51.6002 351.051 50.3314C351.685 49.0625 352.637 47.3707 353.8 45.3617L363.634 28.5493L354.012 29.1837C352.954 30.3468 352.108 31.1927 351.474 31.8272C350.839 32.4616 350.205 33.096 349.571 33.6247L348.513 34.6821C346.293 36.4797 343.015 39.5461 338.468 43.9871C337.516 44.9387 336.353 46.1018 334.873 47.6879C331.912 50.7543 330.22 52.2346 329.798 52.2346C329.586 52.2346 329.375 52.2346 329.269 52.1289C329.163 52.0232 329.057 51.9174 329.057 51.7059C329.057 51.6002 329.163 51.1773 329.48 50.6486C330.326 48.6395 330.749 46.7363 330.749 44.9387C330.749 43.3526 330.326 42.0838 329.375 41.0264C328.423 39.969 327.154 39.4403 325.568 39.2288C327.048 38.3829 328.423 36.7969 329.903 34.4706C331.278 32.1444 332.335 30.9813 332.864 30.9813C333.075 30.9813 333.287 30.9813 333.393 30.9813C333.498 30.9813 333.604 31.087 333.71 31.087C333.287 31.4042 333.075 31.7214 332.864 32.1444C332.652 32.5673 332.652 32.9903 332.652 33.4132C332.652 34.3649 332.97 35.2108 333.604 35.7395C334.239 36.3739 335.084 36.6911 336.036 36.6911C337.093 36.6911 337.939 36.3739 338.68 35.6337C339.314 34.9993 339.737 34.0477 339.737 32.9903C339.737 31.7214 339.314 30.6641 338.362 29.8181C337.411 28.9722 336.248 28.5493 334.873 28.5493C332.758 28.5493 330.749 30.0296 328.952 32.8846C327.154 35.7395 325.779 37.4313 325.039 37.96C324.511 38.3829 323.348 38.5944 321.761 38.7002C320.175 38.8059 319.329 39.2288 319.329 39.8633C319.329 40.1805 319.435 40.392 319.647 40.6034C319.858 40.8149 320.07 40.9207 320.281 40.9207C320.704 40.9207 321.338 40.8149 322.079 40.6034C322.925 40.392 323.559 40.2862 323.876 40.2862C324.193 40.2862 324.405 40.392 324.616 40.4977C324.828 40.7092 324.934 40.8149 324.934 41.1321C324.934 41.6608 324.193 43.2469 322.819 45.6789C321.444 48.2166 320.704 50.2256 320.704 51.9174C320.704 53.292 321.127 54.4551 321.867 55.301C322.607 56.1469 323.665 56.5699 324.934 56.5699C327.894 56.5699 332.124 53.5035 337.728 47.4764C338.468 46.6305 339.102 45.9961 339.525 45.5731C341.217 43.7756 342.698 42.1895 344.072 40.8149C344.707 40.392 345.658 39.4403 347.033 38.0657C347.984 37.1141 348.725 36.2682 349.465 35.6337C349.676 35.4223 349.888 35.2108 350.099 35.1051C347.244 39.5461 345.341 42.9297 344.389 45.1502C343.332 47.3707 342.803 49.274 342.803 50.7543C342.803 52.4461 343.332 53.9264 344.284 54.8781C345.235 55.9355 346.61 56.4642 348.196 56.4642C350.311 56.4642 352.425 55.5125 354.646 53.6092C356.867 51.7059 360.567 47.1592 365.854 39.8633C364.162 43.2469 362.999 45.6789 362.471 47.1592C361.942 48.5338 361.73 49.8027 361.73 50.7543C361.73 52.4461 362.259 53.9264 363.317 54.8781C364.374 55.9355 365.748 56.4642 367.546 56.4642C370.612 56.4642 375.371 53.3978 381.609 47.1592L381.821 46.9477C382.984 45.7846 384.676 44.1985 386.79 41.978C392.077 36.5854 395.778 33.3075 397.893 32.1444C397.999 32.0387 397.893 32.0387 397.681 32.0387Z" fill="white"/>
</svg>
