<svg width="25" height="31" viewBox="0 0 25 31" fill="none" xmlns="http://www.w3.org/2000/svg">
<g clip-path="url(#clip0_9452_938)">
<path opacity="0.4" d="M24.2507 14.9166C23.6084 13.7062 22.5952 12.7334 21.3596 12.141C22.1149 11.7534 22.7857 11.2196 23.3331 10.5707C23.8804 9.92172 24.2934 9.17051 24.548 8.36065C24.8027 7.55079 24.8939 6.69841 24.8165 5.853C24.739 5.00759 24.4944 4.18598 24.0968 3.43588C23.2832 1.92373 21.907 0.792745 20.2658 0.287679C18.6246 -0.217386 16.8506 -0.0559111 15.3276 0.737161L5.32759 5.99357C4.37246 6.49357 3.82118 6.78844 3.48785 6.99357C2.7367 7.38126 2.06964 7.91368 1.52508 8.56018C0.980509 9.20669 0.569187 9.95452 0.314784 10.7606C0.0603816 11.5667 -0.032077 12.4152 0.0427304 13.2572C0.117538 14.0992 0.358134 14.918 0.75067 15.6666C1.39854 16.8751 2.41299 17.8469 3.64811 18.4423C2.8928 18.8299 2.22201 19.3637 1.67467 20.0126C1.12734 20.6616 0.714361 21.4128 0.459714 22.2226C0.205067 23.0325 0.113824 23.8849 0.191281 24.7303C0.268738 25.5757 0.513353 26.3973 0.910926 27.1474C1.72682 28.6572 3.1036 29.7857 4.74418 30.2894C6.38477 30.7931 8.15761 30.6316 9.68016 29.8397L21.5263 23.6154C22.2874 23.2264 22.9631 22.6892 23.5135 22.0353C24.0639 21.3814 24.478 20.624 24.7314 19.8077C24.9823 19.0017 25.069 18.1536 24.9864 17.3135C24.9039 16.4734 24.6537 15.6584 24.2507 14.9166ZM9.37246 19.7179V10.8974L16.552 15.3269L9.37246 19.7179Z" fill="black"/>
<path d="M23.4046 15.3846C22.9451 14.5297 22.2694 13.8105 21.4448 13.2986C20.6203 12.7868 19.6758 12.5004 18.7059 12.4679L20.9302 11.2948C21.5732 10.965 22.144 10.5104 22.6094 9.95752C23.0748 9.40468 23.4255 8.76468 23.6409 8.07488C23.8563 7.38508 23.9322 6.65928 23.8641 5.93984C23.796 5.22041 23.5853 4.52173 23.2443 3.88459C22.5519 2.59644 21.3796 1.63314 19.9816 1.20356C18.5837 0.77397 17.0727 0.912717 15.7764 1.58971L3.92381 7.82048C3.2828 8.14985 2.71358 8.60325 2.2492 9.15437C1.78482 9.7055 1.43453 10.3434 1.21865 11.031C1.00277 11.7185 0.925611 12.4422 0.991641 13.1598C1.05767 13.8775 1.26558 14.5749 1.6033 15.2115C2.06091 16.0684 2.73608 16.7897 3.5609 17.3028C4.38573 17.8159 5.33113 18.1028 6.30202 18.1346L4.07766 19.3013C3.43664 19.6306 2.86743 20.084 2.40305 20.6351C1.93867 21.1863 1.58838 21.8241 1.3725 22.5117C1.15662 23.1993 1.07946 23.9229 1.14549 24.6406C1.21152 25.3582 1.41943 26.0556 1.75715 26.6923C2.44962 27.9821 3.62305 28.9466 5.02254 29.3763C6.42203 29.806 7.93453 29.6662 9.23151 28.9872L21.0841 22.7628C21.7228 22.4327 22.2899 21.9795 22.7527 21.4293C23.2155 20.8791 23.5648 20.2427 23.7805 19.5568C23.9962 18.871 24.0741 18.1492 24.0095 17.4331C23.945 16.7171 23.7394 16.0208 23.4046 15.3846ZM9.37253 19.7179V10.8974L16.552 15.3269L9.37253 19.7179Z" fill="white"/>
<path opacity="0.4" d="M9.37109 10.8782L16.5506 15.3077L9.37109 19.718V10.8782Z" fill="black"/>
</g>
<defs>
<clipPath id="clip0_9452_938">
<rect width="25" height="30.5769" fill="white"/>
</clipPath>
</defs>
</svg>
